  0
SECTION
  2
HEADER
  9
$ANGBASE
  50
0.0
  9
$ANGDIR
  70
1
  9
$MEASUREMENT
  70
1
  0
ENDSEC
  0
SECTION
  2
TABLES
  0
TABLE
  2
LTYPE
  70
4
  0
LTYPE
  5
40F
  2
CONTINUOUS
  70
0
  3
Solid line
  72
65
  73
0
  40
0.0
  0
LTYPE
  5
410
  2
DASHDOT
 70
0
  3
Dash Dot ____ _ ____ _
 72
65
 73
4
 40
2.0
 49
1.25
 49
-0.25
 49
0.25
 49
-0.25
  0
LTYPE
  5
411
  2
DASHED
 70
0
  3
Dashed __ __ __ __ __
 72
65
 73
2
 40
0.75
 49
0.5
 49
-0.25
  0
LTYPE
  5
43B
  2
DOTTED
 70
0
  3
Dotted .  .  .  .
 72
65
 73
2
 40
0.2
 49
0.0
 49
-0.2
  0
ENDTAB
  0
TABLE
  2
STYLE
  70
4
  0
STYLE
  2
KICAD
  70
0
  40
0
  41
1
  42
1
  50
0
  71
0
  3
isocp.shx
  0
STYLE
  2
KICADB
  70
0
  40
0
  41
1
  42
1
  50
0
  71
0
  3
isocp.shx
  0
STYLE
  2
KICADI
  70
0
  40
0
  41
1
  42
1
  50
15
  71
0
  3
isocp.shx
  0
STYLE
  2
KICADBI
  70
0
  40
0
  41
1
  42
1
  50
15
  71
0
  3
isocp.shx
  0
ENDTAB
  0
TABLE
  2
LAYER
  70
1
  0
LAYER
  2
BLACK
  70
0
  62
7
  6
CONTINUOUS
  0
ENDTAB
  0
ENDSEC
  0
SECTION
  2
ENTITIES
0
LINE
8
BLACK
6
CONTINUOUS
10
3.3609169999999997
20
-135.1855469999999855
11
3.5946629999999997
21
-135.2481789999999933
0
LINE
8
BLACK
6
CONTINUOUS
10
3.5946629999999997
20
-135.2481789999999933
11
3.8182339999999999
21
-135.3407849999999826
0
LINE
8
BLACK
6
CONTINUOUS
10
3.8182339999999999
20
-135.3407849999999826
11
4.0278049999999999
21
-135.461781000000002
0
LINE
8
BLACK
6
CONTINUOUS
10
4.0278049999999999
20
-135.461781000000002
11
4.2197899999999997
21
-135.6090959999999939
0
LINE
8
BLACK
6
CONTINUOUS
10
4.2197899999999997
20
-135.6090959999999939
11
4.3909039999999999
21
-135.7802099999999825
0
LINE
8
BLACK
6
CONTINUOUS
10
4.3909039999999999
20
-135.7802099999999825
11
4.5382189999999998
21
-135.9721949999999993
0
LINE
8
BLACK
6
CONTINUOUS
10
4.5382189999999998
20
-135.9721949999999993
11
4.6592149999999997
21
-136.1817659999999819
0
LINE
8
BLACK
6
CONTINUOUS
10
4.6592149999999997
20
-136.1817659999999819
11
4.7518209999999996
21
-136.4053370000000029
0
LINE
8
BLACK
6
CONTINUOUS
10
4.7518209999999996
20
-136.4053370000000029
11
4.8144529999999994
21
-136.6390829999999994
0
LINE
8
BLACK
6
CONTINUOUS
10
4.8144529999999994
20
-136.6390829999999994
11
4.8460390000000002
21
-136.8790039999999806
0
LINE
8
BLACK
6
CONTINUOUS
10
4.8460390000000002
20
-136.8790039999999806
11
4.8460390000000002
21
-137.120995999999991
0
LINE
8
BLACK
6
CONTINUOUS
10
4.8460390000000002
20
-137.120995999999991
11
4.8144529999999994
21
-137.3609170000000006
0
LINE
8
BLACK
6
CONTINUOUS
10
4.8144529999999994
20
-137.3609170000000006
11
4.7518209999999996
21
-137.5946629999999971
0
LINE
8
BLACK
6
CONTINUOUS
10
4.7518209999999996
20
-137.5946629999999971
11
4.6592149999999997
21
-137.8182339999999897
0
LINE
8
BLACK
6
CONTINUOUS
10
4.6592149999999997
20
-137.8182339999999897
11
4.5382189999999998
21
-138.0278050000000007
0
LINE
8
BLACK
6
CONTINUOUS
10
4.5382189999999998
20
-138.0278050000000007
11
4.3909039999999999
21
-138.219789999999989
0
LINE
8
BLACK
6
CONTINUOUS
10
4.3909039999999999
20
-138.219789999999989
11
4.2197899999999997
21
-138.3909040000000061
0
LINE
8
BLACK
6
CONTINUOUS
10
4.2197899999999997
20
-138.3909040000000061
11
4.0278049999999999
21
-138.538218999999998
0
LINE
8
BLACK
6
CONTINUOUS
10
4.0278049999999999
20
-138.538218999999998
11
3.8182339999999999
21
-138.659214999999989
0
LINE
8
BLACK
6
CONTINUOUS
10
3.8182339999999999
20
-138.659214999999989
11
3.5946629999999997
21
-138.7518210000000067
0
LINE
8
BLACK
6
CONTINUOUS
10
3.5946629999999997
20
-138.7518210000000067
11
3.3609169999999997
21
-138.8144529999999861
0
LINE
8
BLACK
6
CONTINUOUS
10
3.3609169999999997
20
-138.8144529999999861
11
3.1209959999999999
21
-138.8460389999999904
0
LINE
8
BLACK
6
CONTINUOUS
10
3.1209959999999999
20
-138.8460389999999904
11
2.8790039999999997
21
-138.8460389999999904
0
LINE
8
BLACK
6
CONTINUOUS
10
2.8790039999999997
20
-138.8460389999999904
11
2.6390829999999998
21
-138.8144529999999861
0
LINE
8
BLACK
6
CONTINUOUS
10
2.6390829999999998
20
-138.8144529999999861
11
2.4053369999999998
21
-138.7518210000000067
0
LINE
8
BLACK
6
CONTINUOUS
10
2.4053369999999998
20
-138.7518210000000067
11
2.1817660000000001
21
-138.659214999999989
0
LINE
8
BLACK
6
CONTINUOUS
10
2.1817660000000001
20
-138.659214999999989
11
1.9721949999999999
21
-138.538218999999998
0
LINE
8
BLACK
6
CONTINUOUS
10
1.9721949999999999
20
-138.538218999999998
11
1.7802099999999998
21
-138.3909040000000061
0
LINE
8
BLACK
6
CONTINUOUS
10
1.7802099999999998
20
-138.3909040000000061
11
1.6090959999999999
21
-138.219789999999989
0
LINE
8
BLACK
6
CONTINUOUS
10
1.6090959999999999
20
-138.219789999999989
11
1.461781
21
-138.0278050000000007
0
LINE
8
BLACK
6
CONTINUOUS
10
1.461781
20
-138.0278050000000007
11
1.3407849999999999
21
-137.8182339999999897
0
LINE
8
BLACK
6
CONTINUOUS
10
1.3407849999999999
20
-137.8182339999999897
11
1.2481789999999999
21
-137.5946629999999971
0
LINE
8
BLACK
6
CONTINUOUS
10
1.2481789999999999
20
-137.5946629999999971
11
1.1855469999999999
21
-137.3609170000000006
0
LINE
8
BLACK
6
CONTINUOUS
10
1.1855469999999999
20
-137.3609170000000006
11
1.153961
21
-137.120995999999991
0
LINE
8
BLACK
6
CONTINUOUS
10
1.153961
20
-137.120995999999991
11
1.153961
21
-136.8852990000000034
0
LINE
8
BLACK
6
CONTINUOUS
10
1.153961
20
-136.8852990000000034
11
1.153961
21
-136.8790039999999806
0
LINE
8
BLACK
6
CONTINUOUS
10
1.153961
20
-136.8790039999999806
11
1.1855469999999999
21
-136.6390829999999994
0
LINE
8
BLACK
6
CONTINUOUS
10
1.1855469999999999
20
-136.6390829999999994
11
1.2481789999999999
21
-136.4053370000000029
0
LINE
8
BLACK
6
CONTINUOUS
10
1.2481789999999999
20
-136.4053370000000029
11
1.3407849999999999
21
-136.1817659999999819
0
LINE
8
BLACK
6
CONTINUOUS
10
1.3407849999999999
20
-136.1817659999999819
11
1.461781
21
-135.9721949999999993
0
LINE
8
BLACK
6
CONTINUOUS
10
1.461781
20
-135.9721949999999993
11
1.6090959999999999
21
-135.7802099999999825
0
LINE
8
BLACK
6
CONTINUOUS
10
1.6090959999999999
20
-135.7802099999999825
11
1.7802099999999998
21
-135.6090959999999939
0
LINE
8
BLACK
6
CONTINUOUS
10
1.7802099999999998
20
-135.6090959999999939
11
1.9721949999999999
21
-135.461781000000002
0
LINE
8
BLACK
6
CONTINUOUS
10
1.9721949999999999
20
-135.461781000000002
11
2.1817660000000001
21
-135.3407849999999826
0
LINE
8
BLACK
6
CONTINUOUS
10
2.1817660000000001
20
-135.3407849999999826
11
2.4053369999999998
21
-135.2481789999999933
0
LINE
8
BLACK
6
CONTINUOUS
10
2.4053369999999998
20
-135.2481789999999933
11
2.6390829999999998
21
-135.1855469999999855
0
LINE
8
BLACK
6
CONTINUOUS
10
2.6390829999999998
20
-135.1855469999999855
11
2.8790039999999997
21
-135.1539609999999811
0
LINE
8
BLACK
6
CONTINUOUS
10
2.8790039999999997
20
-135.1539609999999811
11
3.1209959999999999
21
-135.1539609999999811
0
LINE
8
BLACK
6
CONTINUOUS
10
3.1209959999999999
20
-135.1539609999999811
11
3.3609169999999997
21
-135.1855469999999855
0
LINE
8
BLACK
6
CONTINUOUS
10
1.25
20
-137.1147009999999966
11
1.2799430000000001
21
-137.342140999999998
0
LINE
8
BLACK
6
CONTINUOUS
10
1.2799430000000001
20
-137.342140999999998
11
1.3393169999999999
21
-137.5637260000000026
0
LINE
8
BLACK
6
CONTINUOUS
10
1.3393169999999999
20
-137.5637260000000026
11
1.4271049999999998
21
-137.7756660000000011
0
LINE
8
BLACK
6
CONTINUOUS
10
1.4271049999999998
20
-137.7756660000000011
11
1.541806
21
-137.9743339999999989
0
LINE
8
BLACK
6
CONTINUOUS
10
1.541806
20
-137.9743339999999989
11
1.681457
21
-138.1563309999999944
0
LINE
8
BLACK
6
CONTINUOUS
10
1.681457
20
-138.1563309999999944
11
1.843669
21
-138.3185430000000053
0
LINE
8
BLACK
6
CONTINUOUS
10
1.843669
20
-138.3185430000000053
11
2.0256659999999997
21
-138.4581939999999918
0
LINE
8
BLACK
6
CONTINUOUS
10
2.0256659999999997
20
-138.4581939999999918
11
2.2243339999999998
21
-138.5728949999999884
0
LINE
8
BLACK
6
CONTINUOUS
10
2.2243339999999998
20
-138.5728949999999884
11
2.4362740000000001
21
-138.6606830000000059
0
LINE
8
BLACK
6
CONTINUOUS
10
2.4362740000000001
20
-138.6606830000000059
11
2.6578589999999997
21
-138.7200569999999971
0
LINE
8
BLACK
6
CONTINUOUS
10
2.6578589999999997
20
-138.7200569999999971
11
2.8852989999999998
21
-138.75
0
LINE
8
BLACK
6
CONTINUOUS
10
2.8852989999999998
20
-138.75
11
3.1147009999999997
21
-138.75
0
LINE
8
BLACK
6
CONTINUOUS
10
3.1147009999999997
20
-138.75
11
3.3421409999999998
21
-138.7200569999999971
0
LINE
8
BLACK
6
CONTINUOUS
10
3.3421409999999998
20
-138.7200569999999971
11
3.5637259999999999
21
-138.6606830000000059
0
LINE
8
BLACK
6
CONTINUOUS
10
3.5637259999999999
20
-138.6606830000000059
11
3.7756659999999997
21
-138.5728949999999884
0
LINE
8
BLACK
6
CONTINUOUS
10
3.7756659999999997
20
-138.5728949999999884
11
3.9743339999999998
21
-138.4581939999999918
0
LINE
8
BLACK
6
CONTINUOUS
10
3.9743339999999998
20
-138.4581939999999918
11
4.1563309999999998
21
-138.3185430000000053
0
LINE
8
BLACK
6
CONTINUOUS
10
4.1563309999999998
20
-138.3185430000000053
11
4.318543
21
-138.1563309999999944
0
LINE
8
BLACK
6
CONTINUOUS
10
4.318543
20
-138.1563309999999944
11
4.4581939999999998
21
-137.9743339999999989
0
LINE
8
BLACK
6
CONTINUOUS
10
4.4581939999999998
20
-137.9743339999999989
11
4.5728949999999999
21
-137.7756660000000011
0
LINE
8
BLACK
6
CONTINUOUS
10
4.5728949999999999
20
-137.7756660000000011
11
4.6606829999999997
21
-137.5637260000000026
0
LINE
8
BLACK
6
CONTINUOUS
10
4.6606829999999997
20
-137.5637260000000026
11
4.7200569999999997
21
-137.342140999999998
0
LINE
8
BLACK
6
CONTINUOUS
10
4.7200569999999997
20
-137.342140999999998
11
4.75
21
-137.1147009999999966
0
LINE
8
BLACK
6
CONTINUOUS
10
4.75
20
-137.1147009999999966
11
4.75
21
-136.8852990000000034
0
LINE
8
BLACK
6
CONTINUOUS
10
4.75
20
-136.8852990000000034
11
4.7200569999999997
21
-136.657859000000002
0
LINE
8
BLACK
6
CONTINUOUS
10
4.7200569999999997
20
-136.657859000000002
11
4.6606829999999997
21
-136.4362739999999974
0
LINE
8
BLACK
6
CONTINUOUS
10
4.6606829999999997
20
-136.4362739999999974
11
4.5728949999999999
21
-136.2243339999999989
0
LINE
8
BLACK
6
CONTINUOUS
10
4.5728949999999999
20
-136.2243339999999989
11
4.4581939999999998
21
-136.0256660000000011
0
LINE
8
BLACK
6
CONTINUOUS
10
4.4581939999999998
20
-136.0256660000000011
11
4.318543
21
-135.8436690000000056
0
LINE
8
BLACK
6
CONTINUOUS
10
4.318543
20
-135.8436690000000056
11
4.1563309999999998
21
-135.6814569999999947
0
LINE
8
BLACK
6
CONTINUOUS
10
4.1563309999999998
20
-135.6814569999999947
11
3.9743339999999998
21
-135.5418059999999798
0
LINE
8
BLACK
6
CONTINUOUS
10
3.9743339999999998
20
-135.5418059999999798
11
3.7756659999999997
21
-135.4271049999999832
0
LINE
8
BLACK
6
CONTINUOUS
10
3.7756659999999997
20
-135.4271049999999832
11
3.5637259999999999
21
-135.3393169999999941
0
LINE
8
BLACK
6
CONTINUOUS
10
3.5637259999999999
20
-135.3393169999999941
11
3.3421409999999998
21
-135.2799430000000029
0
LINE
8
BLACK
6
CONTINUOUS
10
3.3421409999999998
20
-135.2799430000000029
11
3.1147009999999997
21
-135.25
0
LINE
8
BLACK
6
CONTINUOUS
10
3.1147009999999997
20
-135.25
11
2.8852989999999998
21
-135.25
0
LINE
8
BLACK
6
CONTINUOUS
10
2.8852989999999998
20
-135.25
11
2.6578589999999997
21
-135.2799430000000029
0
LINE
8
BLACK
6
CONTINUOUS
10
2.6578589999999997
20
-135.2799430000000029
11
2.4362740000000001
21
-135.3393169999999941
0
LINE
8
BLACK
6
CONTINUOUS
10
2.4362740000000001
20
-135.3393169999999941
11
2.2243339999999998
21
-135.4271049999999832
0
LINE
8
BLACK
6
CONTINUOUS
10
2.2243339999999998
20
-135.4271049999999832
11
2.0256659999999997
21
-135.5418059999999798
0
LINE
8
BLACK
6
CONTINUOUS
10
2.0256659999999997
20
-135.5418059999999798
11
1.843669
21
-135.6814569999999947
0
LINE
8
BLACK
6
CONTINUOUS
10
1.843669
20
-135.6814569999999947
11
1.681457
21
-135.8436690000000056
0
LINE
8
BLACK
6
CONTINUOUS
10
1.681457
20
-135.8436690000000056
11
1.541806
21
-136.0256660000000011
0
LINE
8
BLACK
6
CONTINUOUS
10
1.541806
20
-136.0256660000000011
11
1.4271049999999998
21
-136.2243339999999989
0
LINE
8
BLACK
6
CONTINUOUS
10
1.4271049999999998
20
-136.2243339999999989
11
1.3393169999999999
21
-136.4362739999999974
0
LINE
8
BLACK
6
CONTINUOUS
10
1.3393169999999999
20
-136.4362739999999974
11
1.2799430000000001
21
-136.657859000000002
0
LINE
8
BLACK
6
CONTINUOUS
10
1.2799430000000001
20
-136.657859000000002
11
1.25
21
-136.8852990000000034
0
LINE
8
BLACK
6
CONTINUOUS
10
1.25
20
-136.8852990000000034
11
1.25
21
-137.1147009999999966
0
LINE
8
BLACK
6
CONTINUOUS
10
127.3609170000000006
20
-135.1855469999999855
11
127.5946629999999971
21
-135.2481789999999933
0
LINE
8
BLACK
6
CONTINUOUS
10
127.5946629999999971
20
-135.2481789999999933
11
127.8182339999999897
21
-135.3407849999999826
0
LINE
8
BLACK
6
CONTINUOUS
10
127.8182339999999897
20
-135.3407849999999826
11
128.0278050000000007
21
-135.461781000000002
0
LINE
8
BLACK
6
CONTINUOUS
10
128.0278050000000007
20
-135.461781000000002
11
128.219789999999989
21
-135.6090959999999939
0
LINE
8
BLACK
6
CONTINUOUS
10
128.219789999999989
20
-135.6090959999999939
11
128.3909040000000061
21
-135.7802099999999825
0
LINE
8
BLACK
6
CONTINUOUS
10
128.3909040000000061
20
-135.7802099999999825
11
128.538218999999998
21
-135.9721949999999993
0
LINE
8
BLACK
6
CONTINUOUS
10
128.538218999999998
20
-135.9721949999999993
11
128.659214999999989
21
-136.1817659999999819
0
LINE
8
BLACK
6
CONTINUOUS
10
128.659214999999989
20
-136.1817659999999819
11
128.7518210000000067
21
-136.4053370000000029
0
LINE
8
BLACK
6
CONTINUOUS
10
128.7518210000000067
20
-136.4053370000000029
11
128.8144529999999861
21
-136.6390829999999994
0
LINE
8
BLACK
6
CONTINUOUS
10
128.8144529999999861
20
-136.6390829999999994
11
128.8460389999999904
21
-136.8790039999999806
0
LINE
8
BLACK
6
CONTINUOUS
10
128.8460389999999904
20
-136.8790039999999806
11
128.8460389999999904
21
-137.120995999999991
0
LINE
8
BLACK
6
CONTINUOUS
10
128.8460389999999904
20
-137.120995999999991
11
128.8144529999999861
21
-137.3609170000000006
0
LINE
8
BLACK
6
CONTINUOUS
10
128.8144529999999861
20
-137.3609170000000006
11
128.7518210000000067
21
-137.5946629999999971
0
LINE
8
BLACK
6
CONTINUOUS
10
128.7518210000000067
20
-137.5946629999999971
11
128.659214999999989
21
-137.8182339999999897
0
LINE
8
BLACK
6
CONTINUOUS
10
128.659214999999989
20
-137.8182339999999897
11
128.538218999999998
21
-138.0278050000000007
0
LINE
8
BLACK
6
CONTINUOUS
10
128.538218999999998
20
-138.0278050000000007
11
128.3909040000000061
21
-138.219789999999989
0
LINE
8
BLACK
6
CONTINUOUS
10
128.3909040000000061
20
-138.219789999999989
11
128.219789999999989
21
-138.3909040000000061
0
LINE
8
BLACK
6
CONTINUOUS
10
128.219789999999989
20
-138.3909040000000061
11
128.0278050000000007
21
-138.538218999999998
0
LINE
8
BLACK
6
CONTINUOUS
10
128.0278050000000007
20
-138.538218999999998
11
127.8182339999999897
21
-138.659214999999989
0
LINE
8
BLACK
6
CONTINUOUS
10
127.8182339999999897
20
-138.659214999999989
11
127.5946629999999971
21
-138.7518210000000067
0
LINE
8
BLACK
6
CONTINUOUS
10
127.5946629999999971
20
-138.7518210000000067
11
127.3609170000000006
21
-138.8144529999999861
0
LINE
8
BLACK
6
CONTINUOUS
10
127.3609170000000006
20
-138.8144529999999861
11
127.120995999999991
21
-138.8460389999999904
0
LINE
8
BLACK
6
CONTINUOUS
10
127.120995999999991
20
-138.8460389999999904
11
126.8790039999999948
21
-138.8460389999999904
0
LINE
8
BLACK
6
CONTINUOUS
10
126.8790039999999948
20
-138.8460389999999904
11
126.6390829999999994
21
-138.8144529999999861
0
LINE
8
BLACK
6
CONTINUOUS
10
126.6390829999999994
20
-138.8144529999999861
11
126.4053369999999887
21
-138.7518210000000067
0
LINE
8
BLACK
6
CONTINUOUS
10
126.4053369999999887
20
-138.7518210000000067
11
126.1817659999999961
21
-138.659214999999989
0
LINE
8
BLACK
6
CONTINUOUS
10
126.1817659999999961
20
-138.659214999999989
11
125.9721949999999993
21
-138.538218999999998
0
LINE
8
BLACK
6
CONTINUOUS
10
125.9721949999999993
20
-138.538218999999998
11
125.7802099999999967
21
-138.3909040000000061
0
LINE
8
BLACK
6
CONTINUOUS
10
125.7802099999999967
20
-138.3909040000000061
11
125.6090959999999939
21
-138.219789999999989
0
LINE
8
BLACK
6
CONTINUOUS
10
125.6090959999999939
20
-138.219789999999989
11
125.4617809999999878
21
-138.0278050000000007
0
LINE
8
BLACK
6
CONTINUOUS
10
125.4617809999999878
20
-138.0278050000000007
11
125.3407849999999968
21
-137.8182339999999897
0
LINE
8
BLACK
6
CONTINUOUS
10
125.3407849999999968
20
-137.8182339999999897
11
125.2481789999999933
21
-137.5946629999999971
0
LINE
8
BLACK
6
CONTINUOUS
10
125.2481789999999933
20
-137.5946629999999971
11
125.1855469999999997
21
-137.3609170000000006
0
LINE
8
BLACK
6
CONTINUOUS
10
125.1855469999999997
20
-137.3609170000000006
11
125.1539609999999954
21
-137.120995999999991
0
LINE
8
BLACK
6
CONTINUOUS
10
125.1539609999999954
20
-137.120995999999991
11
125.1539609999999954
21
-136.8852990000000034
0
LINE
8
BLACK
6
CONTINUOUS
10
125.1539609999999954
20
-136.8852990000000034
11
125.1539609999999954
21
-136.8790039999999806
0
LINE
8
BLACK
6
CONTINUOUS
10
125.1539609999999954
20
-136.8790039999999806
11
125.1855469999999997
21
-136.6390829999999994
0
LINE
8
BLACK
6
CONTINUOUS
10
125.1855469999999997
20
-136.6390829999999994
11
125.2481789999999933
21
-136.4053370000000029
0
LINE
8
BLACK
6
CONTINUOUS
10
125.2481789999999933
20
-136.4053370000000029
11
125.3407849999999968
21
-136.1817659999999819
0
LINE
8
BLACK
6
CONTINUOUS
10
125.3407849999999968
20
-136.1817659999999819
11
125.4617809999999878
21
-135.9721949999999993
0
LINE
8
BLACK
6
CONTINUOUS
10
125.4617809999999878
20
-135.9721949999999993
11
125.6090959999999939
21
-135.7802099999999825
0
LINE
8
BLACK
6
CONTINUOUS
10
125.6090959999999939
20
-135.7802099999999825
11
125.7802099999999967
21
-135.6090959999999939
0
LINE
8
BLACK
6
CONTINUOUS
10
125.7802099999999967
20
-135.6090959999999939
11
125.9721949999999993
21
-135.461781000000002
0
LINE
8
BLACK
6
CONTINUOUS
10
125.9721949999999993
20
-135.461781000000002
11
126.1817659999999961
21
-135.3407849999999826
0
LINE
8
BLACK
6
CONTINUOUS
10
126.1817659999999961
20
-135.3407849999999826
11
126.4053369999999887
21
-135.2481789999999933
0
LINE
8
BLACK
6
CONTINUOUS
10
126.4053369999999887
20
-135.2481789999999933
11
126.6390829999999994
21
-135.1855469999999855
0
LINE
8
BLACK
6
CONTINUOUS
10
126.6390829999999994
20
-135.1855469999999855
11
126.8790039999999948
21
-135.1539609999999811
0
LINE
8
BLACK
6
CONTINUOUS
10
126.8790039999999948
20
-135.1539609999999811
11
127.120995999999991
21
-135.1539609999999811
0
LINE
8
BLACK
6
CONTINUOUS
10
127.120995999999991
20
-135.1539609999999811
11
127.3609170000000006
21
-135.1855469999999855
0
LINE
8
BLACK
6
CONTINUOUS
10
125.25
20
-137.1147009999999966
11
125.2799429999999887
21
-137.342140999999998
0
LINE
8
BLACK
6
CONTINUOUS
10
125.2799429999999887
20
-137.342140999999998
11
125.3393169999999941
21
-137.5637260000000026
0
LINE
8
BLACK
6
CONTINUOUS
10
125.3393169999999941
20
-137.5637260000000026
11
125.4271049999999974
21
-137.7756660000000011
0
LINE
8
BLACK
6
CONTINUOUS
10
125.4271049999999974
20
-137.7756660000000011
11
125.541805999999994
21
-137.9743339999999989
0
LINE
8
BLACK
6
CONTINUOUS
10
125.541805999999994
20
-137.9743339999999989
11
125.6814569999999947
21
-138.1563309999999944
0
LINE
8
BLACK
6
CONTINUOUS
10
125.6814569999999947
20
-138.1563309999999944
11
125.8436689999999913
21
-138.3185430000000053
0
LINE
8
BLACK
6
CONTINUOUS
10
125.8436689999999913
20
-138.3185430000000053
11
126.0256660000000011
21
-138.4581939999999918
0
LINE
8
BLACK
6
CONTINUOUS
10
126.0256660000000011
20
-138.4581939999999918
11
126.2243339999999989
21
-138.5728949999999884
0
LINE
8
BLACK
6
CONTINUOUS
10
126.2243339999999989
20
-138.5728949999999884
11
126.4362739999999974
21
-138.6606830000000059
0
LINE
8
BLACK
6
CONTINUOUS
10
126.4362739999999974
20
-138.6606830000000059
11
126.6578589999999878
21
-138.7200569999999971
0
LINE
8
BLACK
6
CONTINUOUS
10
126.6578589999999878
20
-138.7200569999999971
11
126.8852989999999892
21
-138.75
0
LINE
8
BLACK
6
CONTINUOUS
10
126.8852989999999892
20
-138.75
11
127.1147009999999966
21
-138.75
0
LINE
8
BLACK
6
CONTINUOUS
10
127.1147009999999966
20
-138.75
11
127.342140999999998
21
-138.7200569999999971
0
LINE
8
BLACK
6
CONTINUOUS
10
127.342140999999998
20
-138.7200569999999971
11
127.5637259999999884
21
-138.6606830000000059
0
LINE
8
BLACK
6
CONTINUOUS
10
127.5637259999999884
20
-138.6606830000000059
11
127.7756660000000011
21
-138.5728949999999884
0
LINE
8
BLACK
6
CONTINUOUS
10
127.7756660000000011
20
-138.5728949999999884
11
127.9743339999999989
21
-138.4581939999999918
0
LINE
8
BLACK
6
CONTINUOUS
10
127.9743339999999989
20
-138.4581939999999918
11
128.1563309999999944
21
-138.3185430000000053
0
LINE
8
BLACK
6
CONTINUOUS
10
128.1563309999999944
20
-138.3185430000000053
11
128.3185430000000053
21
-138.1563309999999944
0
LINE
8
BLACK
6
CONTINUOUS
10
128.3185430000000053
20
-138.1563309999999944
11
128.4581939999999918
21
-137.9743339999999989
0
LINE
8
BLACK
6
CONTINUOUS
10
128.4581939999999918
20
-137.9743339999999989
11
128.5728949999999884
21
-137.7756660000000011
0
LINE
8
BLACK
6
CONTINUOUS
10
128.5728949999999884
20
-137.7756660000000011
11
128.6606830000000059
21
-137.5637260000000026
0
LINE
8
BLACK
6
CONTINUOUS
10
128.6606830000000059
20
-137.5637260000000026
11
128.7200569999999971
21
-137.342140999999998
0
LINE
8
BLACK
6
CONTINUOUS
10
128.7200569999999971
20
-137.342140999999998
11
128.75
21
-137.1147009999999966
0
LINE
8
BLACK
6
CONTINUOUS
10
128.75
20
-137.1147009999999966
11
128.75
21
-136.8852990000000034
0
LINE
8
BLACK
6
CONTINUOUS
10
128.75
20
-136.8852990000000034
11
128.7200569999999971
21
-136.657859000000002
0
LINE
8
BLACK
6
CONTINUOUS
10
128.7200569999999971
20
-136.657859000000002
11
128.6606830000000059
21
-136.4362739999999974
0
LINE
8
BLACK
6
CONTINUOUS
10
128.6606830000000059
20
-136.4362739999999974
11
128.5728949999999884
21
-136.2243339999999989
0
LINE
8
BLACK
6
CONTINUOUS
10
128.5728949999999884
20
-136.2243339999999989
11
128.4581939999999918
21
-136.0256660000000011
0
LINE
8
BLACK
6
CONTINUOUS
10
128.4581939999999918
20
-136.0256660000000011
11
128.3185430000000053
21
-135.8436690000000056
0
LINE
8
BLACK
6
CONTINUOUS
10
128.3185430000000053
20
-135.8436690000000056
11
128.1563309999999944
21
-135.6814569999999947
0
LINE
8
BLACK
6
CONTINUOUS
10
128.1563309999999944
20
-135.6814569999999947
11
127.9743339999999989
21
-135.5418059999999798
0
LINE
8
BLACK
6
CONTINUOUS
10
127.9743339999999989
20
-135.5418059999999798
11
127.7756660000000011
21
-135.4271049999999832
0
LINE
8
BLACK
6
CONTINUOUS
10
127.7756660000000011
20
-135.4271049999999832
11
127.5637259999999884
21
-135.3393169999999941
0
LINE
8
BLACK
6
CONTINUOUS
10
127.5637259999999884
20
-135.3393169999999941
11
127.342140999999998
21
-135.2799430000000029
0
LINE
8
BLACK
6
CONTINUOUS
10
127.342140999999998
20
-135.2799430000000029
11
127.1147009999999966
21
-135.25
0
LINE
8
BLACK
6
CONTINUOUS
10
127.1147009999999966
20
-135.25
11
126.8852989999999892
21
-135.25
0
LINE
8
BLACK
6
CONTINUOUS
10
126.8852989999999892
20
-135.25
11
126.6578589999999878
21
-135.2799430000000029
0
LINE
8
BLACK
6
CONTINUOUS
10
126.6578589999999878
20
-135.2799430000000029
11
126.4362739999999974
21
-135.3393169999999941
0
LINE
8
BLACK
6
CONTINUOUS
10
126.4362739999999974
20
-135.3393169999999941
11
126.2243339999999989
21
-135.4271049999999832
0
LINE
8
BLACK
6
CONTINUOUS
10
126.2243339999999989
20
-135.4271049999999832
11
126.0256660000000011
21
-135.5418059999999798
0
LINE
8
BLACK
6
CONTINUOUS
10
126.0256660000000011
20
-135.5418059999999798
11
125.8436689999999913
21
-135.6814569999999947
0
LINE
8
BLACK
6
CONTINUOUS
10
125.8436689999999913
20
-135.6814569999999947
11
125.6814569999999947
21
-135.8436690000000056
0
LINE
8
BLACK
6
CONTINUOUS
10
125.6814569999999947
20
-135.8436690000000056
11
125.541805999999994
21
-136.0256660000000011
0
LINE
8
BLACK
6
CONTINUOUS
10
125.541805999999994
20
-136.0256660000000011
11
125.4271049999999974
21
-136.2243339999999989
0
LINE
8
BLACK
6
CONTINUOUS
10
125.4271049999999974
20
-136.2243339999999989
11
125.3393169999999941
21
-136.4362739999999974
0
LINE
8
BLACK
6
CONTINUOUS
10
125.3393169999999941
20
-136.4362739999999974
11
125.2799429999999887
21
-136.657859000000002
0
LINE
8
BLACK
6
CONTINUOUS
10
125.2799429999999887
20
-136.657859000000002
11
125.25
21
-136.8852990000000034
0
LINE
8
BLACK
6
CONTINUOUS
10
125.25
20
-136.8852990000000034
11
125.25
21
-137.1147009999999966
0
LINE
8
BLACK
6
CONTINUOUS
10
71.3118410000000011
20
-33.8205939999999998
11
71.595004000000003
21
-33.8852240000000009
0
LINE
8
BLACK
6
CONTINUOUS
10
71.595004000000003
20
-33.8852240000000009
11
71.8691499999999905
21
-33.9811520000000016
0
LINE
8
BLACK
6
CONTINUOUS
10
71.8691499999999905
20
-33.9811520000000016
11
72.1308319999999981
21
-34.107171000000001
0
LINE
8
BLACK
6
CONTINUOUS
10
72.1308319999999981
20
-34.107171000000001
11
72.3767589999999927
21
-34.2616969999999981
0
LINE
8
BLACK
6
CONTINUOUS
10
72.3767589999999927
20
-34.2616969999999981
11
72.6038379999999961
21
-34.4427869999999956
0
LINE
8
BLACK
6
CONTINUOUS
10
72.6038379999999961
20
-34.4427869999999956
11
72.8092129999999997
21
-34.6481619999999992
0
LINE
8
BLACK
6
CONTINUOUS
10
72.8092129999999997
20
-34.6481619999999992
11
72.9903029999999973
21
-34.8752409999999955
0
LINE
8
BLACK
6
CONTINUOUS
10
72.9903029999999973
20
-34.8752409999999955
11
73.1448290000000014
21
-35.1211679999999973
0
LINE
8
BLACK
6
CONTINUOUS
10
73.1448290000000014
20
-35.1211679999999973
11
73.2708480000000009
21
-35.3828499999999977
0
LINE
8
BLACK
6
CONTINUOUS
10
73.2708480000000009
20
-35.3828499999999977
11
73.3667760000000015
21
-35.6569959999999995
0
LINE
8
BLACK
6
CONTINUOUS
10
73.3667760000000015
20
-35.6569959999999995
11
73.4314059999999955
21
-35.9401590000000013
0
LINE
8
BLACK
6
CONTINUOUS
10
73.4314059999999955
20
-35.9401590000000013
11
73.4639250000000033
21
-36.2287779999999984
0
LINE
8
BLACK
6
CONTINUOUS
10
73.4639250000000033
20
-36.2287779999999984
11
73.4639250000000033
21
-36.5192219999999992
0
LINE
8
BLACK
6
CONTINUOUS
10
73.4639250000000033
20
-36.5192219999999992
11
73.4314059999999955
21
-36.8078409999999963
0
LINE
8
BLACK
6
CONTINUOUS
10
73.4314059999999955
20
-36.8078409999999963
11
73.3667760000000015
21
-37.0910039999999981
0
LINE
8
BLACK
6
CONTINUOUS
10
73.3667760000000015
20
-37.0910039999999981
11
73.2708480000000009
21
-37.3651499999999999
0
LINE
8
BLACK
6
CONTINUOUS
10
73.2708480000000009
20
-37.3651499999999999
11
73.1448290000000014
21
-37.6268320000000003
0
LINE
8
BLACK
6
CONTINUOUS
10
73.1448290000000014
20
-37.6268320000000003
11
72.9903029999999973
21
-37.872758999999995
0
LINE
8
BLACK
6
CONTINUOUS
10
72.9903029999999973
20
-37.872758999999995
11
72.8092129999999997
21
-38.0998379999999983
0
LINE
8
BLACK
6
CONTINUOUS
10
72.8092129999999997
20
-38.0998379999999983
11
72.6038379999999961
21
-38.3052129999999948
0
LINE
8
BLACK
6
CONTINUOUS
10
72.6038379999999961
20
-38.3052129999999948
11
72.3767589999999927
21
-38.4863029999999995
0
LINE
8
BLACK
6
CONTINUOUS
10
72.3767589999999927
20
-38.4863029999999995
11
72.1308319999999981
21
-38.6408289999999965
0
LINE
8
BLACK
6
CONTINUOUS
10
72.1308319999999981
20
-38.6408289999999965
11
71.8691499999999905
21
-38.766847999999996
0
LINE
8
BLACK
6
CONTINUOUS
10
71.8691499999999905
20
-38.766847999999996
11
71.595004000000003
21
-38.8627759999999967
0
LINE
8
BLACK
6
CONTINUOUS
10
71.595004000000003
20
-38.8627759999999967
11
71.3118410000000011
21
-38.9274059999999977
0
LINE
8
BLACK
6
CONTINUOUS
10
71.3118410000000011
20
-38.9274059999999977
11
71.0232219999999899
21
-38.9599249999999984
0
LINE
8
BLACK
6
CONTINUOUS
10
71.0232219999999899
20
-38.9599249999999984
11
70.7327779999999962
21
-38.9599249999999984
0
LINE
8
BLACK
6
CONTINUOUS
10
70.7327779999999962
20
-38.9599249999999984
11
70.4441589999999991
21
-38.9274059999999977
0
LINE
8
BLACK
6
CONTINUOUS
10
70.4441589999999991
20
-38.9274059999999977
11
70.1609959999999973
21
-38.8627759999999967
0
LINE
8
BLACK
6
CONTINUOUS
10
70.1609959999999973
20
-38.8627759999999967
11
69.8868499999999955
21
-38.766847999999996
0
LINE
8
BLACK
6
CONTINUOUS
10
69.8868499999999955
20
-38.766847999999996
11
69.6251680000000022
21
-38.6408289999999965
0
LINE
8
BLACK
6
CONTINUOUS
10
69.6251680000000022
20
-38.6408289999999965
11
69.3792409999999933
21
-38.4863029999999995
0
LINE
8
BLACK
6
CONTINUOUS
10
69.3792409999999933
20
-38.4863029999999995
11
69.1521619999999899
21
-38.3052129999999948
0
LINE
8
BLACK
6
CONTINUOUS
10
69.1521619999999899
20
-38.3052129999999948
11
68.9467870000000005
21
-38.0998379999999983
0
LINE
8
BLACK
6
CONTINUOUS
10
68.9467870000000005
20
-38.0998379999999983
11
68.765697000000003
21
-37.872758999999995
0
LINE
8
BLACK
6
CONTINUOUS
10
68.765697000000003
20
-37.872758999999995
11
68.6111709999999988
21
-37.6268320000000003
0
LINE
8
BLACK
6
CONTINUOUS
10
68.6111709999999988
20
-37.6268320000000003
11
68.4851519999999994
21
-37.3651499999999999
0
LINE
8
BLACK
6
CONTINUOUS
10
68.4851519999999994
20
-37.3651499999999999
11
68.3892239999999987
21
-37.0910039999999981
0
LINE
8
BLACK
6
CONTINUOUS
10
68.3892239999999987
20
-37.0910039999999981
11
68.3245939999999905
21
-36.8078409999999963
0
LINE
8
BLACK
6
CONTINUOUS
10
68.3245939999999905
20
-36.8078409999999963
11
68.292074999999997
21
-36.5192219999999992
0
LINE
8
BLACK
6
CONTINUOUS
10
68.292074999999997
20
-36.5192219999999992
11
68.292074999999997
21
-36.2341649999999973
0
LINE
8
BLACK
6
CONTINUOUS
10
68.292074999999997
20
-36.2341649999999973
11
68.292074999999997
21
-36.2287779999999984
0
LINE
8
BLACK
6
CONTINUOUS
10
68.292074999999997
20
-36.2287779999999984
11
68.3245939999999905
21
-35.9401590000000013
0
LINE
8
BLACK
6
CONTINUOUS
10
68.3245939999999905
20
-35.9401590000000013
11
68.3892239999999987
21
-35.6569959999999995
0
LINE
8
BLACK
6
CONTINUOUS
10
68.3892239999999987
20
-35.6569959999999995
11
68.4851519999999994
21
-35.3828499999999977
0
LINE
8
BLACK
6
CONTINUOUS
10
68.4851519999999994
20
-35.3828499999999977
11
68.6111709999999988
21
-35.1211679999999973
0
LINE
8
BLACK
6
CONTINUOUS
10
68.6111709999999988
20
-35.1211679999999973
11
68.765697000000003
21
-34.8752409999999955
0
LINE
8
BLACK
6
CONTINUOUS
10
68.765697000000003
20
-34.8752409999999955
11
68.9467870000000005
21
-34.6481619999999992
0
LINE
8
BLACK
6
CONTINUOUS
10
68.9467870000000005
20
-34.6481619999999992
11
69.1521619999999899
21
-34.4427869999999956
0
LINE
8
BLACK
6
CONTINUOUS
10
69.1521619999999899
20
-34.4427869999999956
11
69.3792409999999933
21
-34.2616969999999981
0
LINE
8
BLACK
6
CONTINUOUS
10
69.3792409999999933
20
-34.2616969999999981
11
69.6251680000000022
21
-34.107171000000001
0
LINE
8
BLACK
6
CONTINUOUS
10
69.6251680000000022
20
-34.107171000000001
11
69.8868499999999955
21
-33.9811520000000016
0
LINE
8
BLACK
6
CONTINUOUS
10
69.8868499999999955
20
-33.9811520000000016
11
70.1609959999999973
21
-33.8852240000000009
0
LINE
8
BLACK
6
CONTINUOUS
10
70.1609959999999973
20
-33.8852240000000009
11
70.4441589999999991
21
-33.8205939999999998
0
LINE
8
BLACK
6
CONTINUOUS
10
70.4441589999999991
20
-33.8205939999999998
11
70.7327779999999962
21
-33.7880749999999992
0
LINE
8
BLACK
6
CONTINUOUS
10
70.7327779999999962
20
-33.7880749999999992
11
71.0232219999999899
21
-33.7880749999999992
0
LINE
8
BLACK
6
CONTINUOUS
10
71.0232219999999899
20
-33.7880749999999992
11
71.3118410000000011
21
-33.8205939999999998
0
LINE
8
BLACK
6
CONTINUOUS
10
68.387999999999991
20
-36.5138350000000003
11
68.419314
21
-36.7917479999999983
0
LINE
8
BLACK
6
CONTINUOUS
10
68.419314
20
-36.7917479999999983
11
68.4815459999999945
21
-37.0644059999999982
0
LINE
8
BLACK
6
CONTINUOUS
10
68.4815459999999945
20
-37.0644059999999982
11
68.573915999999997
21
-37.3283829999999952
0
LINE
8
BLACK
6
CONTINUOUS
10
68.573915999999997
20
-37.3283829999999952
11
68.6952599999999904
21
-37.5803579999999968
0
LINE
8
BLACK
6
CONTINUOUS
10
68.6952599999999904
20
-37.5803579999999968
11
68.8440539999999999
21
-37.8171619999999962
0
LINE
8
BLACK
6
CONTINUOUS
10
68.8440539999999999
20
-37.8171619999999962
11
69.0184259999999909
21
-38.0358170000000015
0
LINE
8
BLACK
6
CONTINUOUS
10
69.0184259999999909
20
-38.0358170000000015
11
69.2161830000000009
21
-38.2335739999999973
0
LINE
8
BLACK
6
CONTINUOUS
10
69.2161830000000009
20
-38.2335739999999973
11
69.4348379999999992
21
-38.4079459999999955
0
LINE
8
BLACK
6
CONTINUOUS
10
69.4348379999999992
20
-38.4079459999999955
11
69.6716419999999914
21
-38.5567399999999978
0
LINE
8
BLACK
6
CONTINUOUS
10
69.6716419999999914
20
-38.5567399999999978
11
69.923616999999993
21
-38.6780839999999984
0
LINE
8
BLACK
6
CONTINUOUS
10
69.923616999999993
20
-38.6780839999999984
11
70.18759399999999
21
-38.7704540000000009
0
LINE
8
BLACK
6
CONTINUOUS
10
70.18759399999999
20
-38.7704540000000009
11
70.460251999999997
21
-38.8326859999999954
0
LINE
8
BLACK
6
CONTINUOUS
10
70.460251999999997
20
-38.8326859999999954
11
70.7381649999999951
21
-38.8639999999999972
0
LINE
8
BLACK
6
CONTINUOUS
10
70.7381649999999951
20
-38.8639999999999972
11
71.0178349999999909
21
-38.8639999999999972
0
LINE
8
BLACK
6
CONTINUOUS
10
71.0178349999999909
20
-38.8639999999999972
11
71.2957480000000032
21
-38.8326859999999954
0
LINE
8
BLACK
6
CONTINUOUS
10
71.2957480000000032
20
-38.8326859999999954
11
71.568405999999996
21
-38.7704540000000009
0
LINE
8
BLACK
6
CONTINUOUS
10
71.568405999999996
20
-38.7704540000000009
11
71.832382999999993
21
-38.6780839999999984
0
LINE
8
BLACK
6
CONTINUOUS
10
71.832382999999993
20
-38.6780839999999984
11
72.0843579999999946
21
-38.5567399999999978
0
LINE
8
BLACK
6
CONTINUOUS
10
72.0843579999999946
20
-38.5567399999999978
11
72.3211620000000011
21
-38.4079459999999955
0
LINE
8
BLACK
6
CONTINUOUS
10
72.3211620000000011
20
-38.4079459999999955
11
72.5398169999999993
21
-38.2335739999999973
0
LINE
8
BLACK
6
CONTINUOUS
10
72.5398169999999993
20
-38.2335739999999973
11
72.7375739999999951
21
-38.0358170000000015
0
LINE
8
BLACK
6
CONTINUOUS
10
72.7375739999999951
20
-38.0358170000000015
11
72.9119460000000004
21
-37.8171619999999962
0
LINE
8
BLACK
6
CONTINUOUS
10
72.9119460000000004
20
-37.8171619999999962
11
73.0607399999999956
21
-37.5803579999999968
0
LINE
8
BLACK
6
CONTINUOUS
10
73.0607399999999956
20
-37.5803579999999968
11
73.1820840000000032
21
-37.3283829999999952
0
LINE
8
BLACK
6
CONTINUOUS
10
73.1820840000000032
20
-37.3283829999999952
11
73.2744539999999915
21
-37.0644059999999982
0
LINE
8
BLACK
6
CONTINUOUS
10
73.2744539999999915
20
-37.0644059999999982
11
73.3366860000000003
21
-36.7917479999999983
0
LINE
8
BLACK
6
CONTINUOUS
10
73.3366860000000003
20
-36.7917479999999983
11
73.367999999999995
21
-36.5138350000000003
0
LINE
8
BLACK
6
CONTINUOUS
10
73.367999999999995
20
-36.5138350000000003
11
73.367999999999995
21
-36.2341649999999973
0
LINE
8
BLACK
6
CONTINUOUS
10
73.367999999999995
20
-36.2341649999999973
11
73.3366860000000003
21
-35.9562519999999992
0
LINE
8
BLACK
6
CONTINUOUS
10
73.3366860000000003
20
-35.9562519999999992
11
73.2744539999999915
21
-35.6835939999999994
0
LINE
8
BLACK
6
CONTINUOUS
10
73.2744539999999915
20
-35.6835939999999994
11
73.1820840000000032
21
-35.4196169999999952
0
LINE
8
BLACK
6
CONTINUOUS
10
73.1820840000000032
20
-35.4196169999999952
11
73.0607399999999956
21
-35.1676420000000007
0
LINE
8
BLACK
6
CONTINUOUS
10
73.0607399999999956
20
-35.1676420000000007
11
72.9119460000000004
21
-34.9308380000000014
0
LINE
8
BLACK
6
CONTINUOUS
10
72.9119460000000004
20
-34.9308380000000014
11
72.7375739999999951
21
-34.712182999999996
0
LINE
8
BLACK
6
CONTINUOUS
10
72.7375739999999951
20
-34.712182999999996
11
72.5398169999999993
21
-34.5144260000000003
0
LINE
8
BLACK
6
CONTINUOUS
10
72.5398169999999993
20
-34.5144260000000003
11
72.3211620000000011
21
-34.340053999999995
0
LINE
8
BLACK
6
CONTINUOUS
10
72.3211620000000011
20
-34.340053999999995
11
72.0843579999999946
21
-34.1912599999999998
0
LINE
8
BLACK
6
CONTINUOUS
10
72.0843579999999946
20
-34.1912599999999998
11
71.832382999999993
21
-34.0699159999999992
0
LINE
8
BLACK
6
CONTINUOUS
10
71.832382999999993
20
-34.0699159999999992
11
71.568405999999996
21
-33.9775459999999967
0
LINE
8
BLACK
6
CONTINUOUS
10
71.568405999999996
20
-33.9775459999999967
11
71.2957480000000032
21
-33.9153139999999951
0
LINE
8
BLACK
6
CONTINUOUS
10
71.2957480000000032
20
-33.9153139999999951
11
71.0178349999999909
21
-33.8840000000000003
0
LINE
8
BLACK
6
CONTINUOUS
10
71.0178349999999909
20
-33.8840000000000003
11
70.7381649999999951
21
-33.8840000000000003
0
LINE
8
BLACK
6
CONTINUOUS
10
70.7381649999999951
20
-33.8840000000000003
11
70.460251999999997
21
-33.9153139999999951
0
LINE
8
BLACK
6
CONTINUOUS
10
70.460251999999997
20
-33.9153139999999951
11
70.18759399999999
21
-33.9775459999999967
0
LINE
8
BLACK
6
CONTINUOUS
10
70.18759399999999
20
-33.9775459999999967
11
69.923616999999993
21
-34.0699159999999992
0
LINE
8
BLACK
6
CONTINUOUS
10
69.923616999999993
20
-34.0699159999999992
11
69.6716419999999914
21
-34.1912599999999998
0
LINE
8
BLACK
6
CONTINUOUS
10
69.6716419999999914
20
-34.1912599999999998
11
69.4348379999999992
21
-34.340053999999995
0
LINE
8
BLACK
6
CONTINUOUS
10
69.4348379999999992
20
-34.340053999999995
11
69.2161830000000009
21
-34.5144260000000003
0
LINE
8
BLACK
6
CONTINUOUS
10
69.2161830000000009
20
-34.5144260000000003
11
69.0184259999999909
21
-34.712182999999996
0
LINE
8
BLACK
6
CONTINUOUS
10
69.0184259999999909
20
-34.712182999999996
11
68.8440539999999999
21
-34.9308380000000014
0
LINE
8
BLACK
6
CONTINUOUS
10
68.8440539999999999
20
-34.9308380000000014
11
68.6952599999999904
21
-35.1676420000000007
0
LINE
8
BLACK
6
CONTINUOUS
10
68.6952599999999904
20
-35.1676420000000007
11
68.573915999999997
21
-35.4196169999999952
0
LINE
8
BLACK
6
CONTINUOUS
10
68.573915999999997
20
-35.4196169999999952
11
68.4815459999999945
21
-35.6835939999999994
0
LINE
8
BLACK
6
CONTINUOUS
10
68.4815459999999945
20
-35.6835939999999994
11
68.419314
21
-35.9562519999999992
0
LINE
8
BLACK
6
CONTINUOUS
10
68.419314
20
-35.9562519999999992
11
68.387999999999991
21
-36.2341649999999973
0
LINE
8
BLACK
6
CONTINUOUS
10
68.387999999999991
20
-36.2341649999999973
11
68.387999999999991
21
-36.5138350000000003
0
LINE
8
BLACK
6
CONTINUOUS
10
3.3609169999999997
20
-1.1855469999999999
11
3.5946629999999997
21
-1.2481789999999999
0
LINE
8
BLACK
6
CONTINUOUS
10
3.5946629999999997
20
-1.2481789999999999
11
3.8182339999999999
21
-1.3407849999999999
0
LINE
8
BLACK
6
CONTINUOUS
10
3.8182339999999999
20
-1.3407849999999999
11
4.0278049999999999
21
-1.461781
0
LINE
8
BLACK
6
CONTINUOUS
10
4.0278049999999999
20
-1.461781
11
4.2197899999999997
21
-1.6090959999999999
0
LINE
8
BLACK
6
CONTINUOUS
10
4.2197899999999997
20
-1.6090959999999999
11
4.3909039999999999
21
-1.7802099999999998
0
LINE
8
BLACK
6
CONTINUOUS
10
4.3909039999999999
20
-1.7802099999999998
11
4.5382189999999998
21
-1.9721949999999999
0
LINE
8
BLACK
6
CONTINUOUS
10
4.5382189999999998
20
-1.9721949999999999
11
4.6592149999999997
21
-2.1817660000000001
0
LINE
8
BLACK
6
CONTINUOUS
10
4.6592149999999997
20
-2.1817660000000001
11
4.7518209999999996
21
-2.4053369999999998
0
LINE
8
BLACK
6
CONTINUOUS
10
4.7518209999999996
20
-2.4053369999999998
11
4.8144529999999994
21
-2.6390829999999998
0
LINE
8
BLACK
6
CONTINUOUS
10
4.8144529999999994
20
-2.6390829999999998
11
4.8460390000000002
21
-2.8790039999999997
0
LINE
8
BLACK
6
CONTINUOUS
10
4.8460390000000002
20
-2.8790039999999997
11
4.8460390000000002
21
-3.1209959999999999
0
LINE
8
BLACK
6
CONTINUOUS
10
4.8460390000000002
20
-3.1209959999999999
11
4.8144529999999994
21
-3.3609169999999997
0
LINE
8
BLACK
6
CONTINUOUS
10
4.8144529999999994
20
-3.3609169999999997
11
4.7518209999999996
21
-3.5946629999999997
0
LINE
8
BLACK
6
CONTINUOUS
10
4.7518209999999996
20
-3.5946629999999997
11
4.6592149999999997
21
-3.8182339999999999
0
LINE
8
BLACK
6
CONTINUOUS
10
4.6592149999999997
20
-3.8182339999999999
11
4.5382189999999998
21
-4.0278049999999999
0
LINE
8
BLACK
6
CONTINUOUS
10
4.5382189999999998
20
-4.0278049999999999
11
4.3909039999999999
21
-4.2197899999999997
0
LINE
8
BLACK
6
CONTINUOUS
10
4.3909039999999999
20
-4.2197899999999997
11
4.2197899999999997
21
-4.3909039999999999
0
LINE
8
BLACK
6
CONTINUOUS
10
4.2197899999999997
20
-4.3909039999999999
11
4.0278049999999999
21
-4.5382189999999998
0
LINE
8
BLACK
6
CONTINUOUS
10
4.0278049999999999
20
-4.5382189999999998
11
3.8182339999999999
21
-4.6592149999999997
0
LINE
8
BLACK
6
CONTINUOUS
10
3.8182339999999999
20
-4.6592149999999997
11
3.5946629999999997
21
-4.7518209999999996
0
LINE
8
BLACK
6
CONTINUOUS
10
3.5946629999999997
20
-4.7518209999999996
11
3.3609169999999997
21
-4.8144529999999994
0
LINE
8
BLACK
6
CONTINUOUS
10
3.3609169999999997
20
-4.8144529999999994
11
3.1209959999999999
21
-4.8460390000000002
0
LINE
8
BLACK
6
CONTINUOUS
10
3.1209959999999999
20
-4.8460390000000002
11
2.8790039999999997
21
-4.8460390000000002
0
LINE
8
BLACK
6
CONTINUOUS
10
2.8790039999999997
20
-4.8460390000000002
11
2.6390829999999998
21
-4.8144529999999994
0
LINE
8
BLACK
6
CONTINUOUS
10
2.6390829999999998
20
-4.8144529999999994
11
2.4053369999999998
21
-4.7518209999999996
0
LINE
8
BLACK
6
CONTINUOUS
10
2.4053369999999998
20
-4.7518209999999996
11
2.1817660000000001
21
-4.6592149999999997
0
LINE
8
BLACK
6
CONTINUOUS
10
2.1817660000000001
20
-4.6592149999999997
11
1.9721949999999999
21
-4.5382189999999998
0
LINE
8
BLACK
6
CONTINUOUS
10
1.9721949999999999
20
-4.5382189999999998
11
1.7802099999999998
21
-4.3909039999999999
0
LINE
8
BLACK
6
CONTINUOUS
10
1.7802099999999998
20
-4.3909039999999999
11
1.6090959999999999
21
-4.2197899999999997
0
LINE
8
BLACK
6
CONTINUOUS
10
1.6090959999999999
20
-4.2197899999999997
11
1.461781
21
-4.0278049999999999
0
LINE
8
BLACK
6
CONTINUOUS
10
1.461781
20
-4.0278049999999999
11
1.3407849999999999
21
-3.8182339999999999
0
LINE
8
BLACK
6
CONTINUOUS
10
1.3407849999999999
20
-3.8182339999999999
11
1.2481789999999999
21
-3.5946629999999997
0
LINE
8
BLACK
6
CONTINUOUS
10
1.2481789999999999
20
-3.5946629999999997
11
1.1855469999999999
21
-3.3609169999999997
0
LINE
8
BLACK
6
CONTINUOUS
10
1.1855469999999999
20
-3.3609169999999997
11
1.153961
21
-3.1209959999999999
0
LINE
8
BLACK
6
CONTINUOUS
10
1.153961
20
-3.1209959999999999
11
1.153961
21
-2.8852989999999998
0
LINE
8
BLACK
6
CONTINUOUS
10
1.153961
20
-2.8852989999999998
11
1.153961
21
-2.8790039999999997
0
LINE
8
BLACK
6
CONTINUOUS
10
1.153961
20
-2.8790039999999997
11
1.1855469999999999
21
-2.6390829999999998
0
LINE
8
BLACK
6
CONTINUOUS
10
1.1855469999999999
20
-2.6390829999999998
11
1.2481789999999999
21
-2.4053369999999998
0
LINE
8
BLACK
6
CONTINUOUS
10
1.2481789999999999
20
-2.4053369999999998
11
1.3407849999999999
21
-2.1817660000000001
0
LINE
8
BLACK
6
CONTINUOUS
10
1.3407849999999999
20
-2.1817660000000001
11
1.461781
21
-1.9721949999999999
0
LINE
8
BLACK
6
CONTINUOUS
10
1.461781
20
-1.9721949999999999
11
1.6090959999999999
21
-1.7802099999999998
0
LINE
8
BLACK
6
CONTINUOUS
10
1.6090959999999999
20
-1.7802099999999998
11
1.7802099999999998
21
-1.6090959999999999
0
LINE
8
BLACK
6
CONTINUOUS
10
1.7802099999999998
20
-1.6090959999999999
11
1.9721949999999999
21
-1.461781
0
LINE
8
BLACK
6
CONTINUOUS
10
1.9721949999999999
20
-1.461781
11
2.1817660000000001
21
-1.3407849999999999
0
LINE
8
BLACK
6
CONTINUOUS
10
2.1817660000000001
20
-1.3407849999999999
11
2.4053369999999998
21
-1.2481789999999999
0
LINE
8
BLACK
6
CONTINUOUS
10
2.4053369999999998
20
-1.2481789999999999
11
2.6390829999999998
21
-1.1855469999999999
0
LINE
8
BLACK
6
CONTINUOUS
10
2.6390829999999998
20
-1.1855469999999999
11
2.8790039999999997
21
-1.153961
0
LINE
8
BLACK
6
CONTINUOUS
10
2.8790039999999997
20
-1.153961
11
3.1209959999999999
21
-1.153961
0
LINE
8
BLACK
6
CONTINUOUS
10
3.1209959999999999
20
-1.153961
11
3.3609169999999997
21
-1.1855469999999999
0
LINE
8
BLACK
6
CONTINUOUS
10
1.25
20
-3.1147009999999997
11
1.2799430000000001
21
-3.3421409999999998
0
LINE
8
BLACK
6
CONTINUOUS
10
1.2799430000000001
20
-3.3421409999999998
11
1.3393169999999999
21
-3.5637259999999999
0
LINE
8
BLACK
6
CONTINUOUS
10
1.3393169999999999
20
-3.5637259999999999
11
1.4271049999999998
21
-3.7756659999999997
0
LINE
8
BLACK
6
CONTINUOUS
10
1.4271049999999998
20
-3.7756659999999997
11
1.541806
21
-3.9743339999999998
0
LINE
8
BLACK
6
CONTINUOUS
10
1.541806
20
-3.9743339999999998
11
1.681457
21
-4.1563309999999998
0
LINE
8
BLACK
6
CONTINUOUS
10
1.681457
20
-4.1563309999999998
11
1.843669
21
-4.318543
0
LINE
8
BLACK
6
CONTINUOUS
10
1.843669
20
-4.318543
11
2.0256659999999997
21
-4.4581939999999998
0
LINE
8
BLACK
6
CONTINUOUS
10
2.0256659999999997
20
-4.4581939999999998
11
2.2243339999999998
21
-4.5728949999999999
0
LINE
8
BLACK
6
CONTINUOUS
10
2.2243339999999998
20
-4.5728949999999999
11
2.4362740000000001
21
-4.6606829999999997
0
LINE
8
BLACK
6
CONTINUOUS
10
2.4362740000000001
20
-4.6606829999999997
11
2.6578589999999997
21
-4.7200569999999997
0
LINE
8
BLACK
6
CONTINUOUS
10
2.6578589999999997
20
-4.7200569999999997
11
2.8852989999999998
21
-4.75
0
LINE
8
BLACK
6
CONTINUOUS
10
2.8852989999999998
20
-4.75
11
3.1147009999999997
21
-4.75
0
LINE
8
BLACK
6
CONTINUOUS
10
3.1147009999999997
20
-4.75
11
3.3421409999999998
21
-4.7200569999999997
0
LINE
8
BLACK
6
CONTINUOUS
10
3.3421409999999998
20
-4.7200569999999997
11
3.5637259999999999
21
-4.6606829999999997
0
LINE
8
BLACK
6
CONTINUOUS
10
3.5637259999999999
20
-4.6606829999999997
11
3.7756659999999997
21
-4.5728949999999999
0
LINE
8
BLACK
6
CONTINUOUS
10
3.7756659999999997
20
-4.5728949999999999
11
3.9743339999999998
21
-4.4581939999999998
0
LINE
8
BLACK
6
CONTINUOUS
10
3.9743339999999998
20
-4.4581939999999998
11
4.1563309999999998
21
-4.318543
0
LINE
8
BLACK
6
CONTINUOUS
10
4.1563309999999998
20
-4.318543
11
4.318543
21
-4.1563309999999998
0
LINE
8
BLACK
6
CONTINUOUS
10
4.318543
20
-4.1563309999999998
11
4.4581939999999998
21
-3.9743339999999998
0
LINE
8
BLACK
6
CONTINUOUS
10
4.4581939999999998
20
-3.9743339999999998
11
4.5728949999999999
21
-3.7756659999999997
0
LINE
8
BLACK
6
CONTINUOUS
10
4.5728949999999999
20
-3.7756659999999997
11
4.6606829999999997
21
-3.5637259999999999
0
LINE
8
BLACK
6
CONTINUOUS
10
4.6606829999999997
20
-3.5637259999999999
11
4.7200569999999997
21
-3.3421409999999998
0
LINE
8
BLACK
6
CONTINUOUS
10
4.7200569999999997
20
-3.3421409999999998
11
4.75
21
-3.1147009999999997
0
LINE
8
BLACK
6
CONTINUOUS
10
4.75
20
-3.1147009999999997
11
4.75
21
-2.8852989999999998
0
LINE
8
BLACK
6
CONTINUOUS
10
4.75
20
-2.8852989999999998
11
4.7200569999999997
21
-2.6578589999999997
0
LINE
8
BLACK
6
CONTINUOUS
10
4.7200569999999997
20
-2.6578589999999997
11
4.6606829999999997
21
-2.4362740000000001
0
LINE
8
BLACK
6
CONTINUOUS
10
4.6606829999999997
20
-2.4362740000000001
11
4.5728949999999999
21
-2.2243339999999998
0
LINE
8
BLACK
6
CONTINUOUS
10
4.5728949999999999
20
-2.2243339999999998
11
4.4581939999999998
21
-2.0256659999999997
0
LINE
8
BLACK
6
CONTINUOUS
10
4.4581939999999998
20
-2.0256659999999997
11
4.318543
21
-1.843669
0
LINE
8
BLACK
6
CONTINUOUS
10
4.318543
20
-1.843669
11
4.1563309999999998
21
-1.681457
0
LINE
8
BLACK
6
CONTINUOUS
10
4.1563309999999998
20
-1.681457
11
3.9743339999999998
21
-1.541806
0
LINE
8
BLACK
6
CONTINUOUS
10
3.9743339999999998
20
-1.541806
11
3.7756659999999997
21
-1.4271049999999998
0
LINE
8
BLACK
6
CONTINUOUS
10
3.7756659999999997
20
-1.4271049999999998
11
3.5637259999999999
21
-1.3393169999999999
0
LINE
8
BLACK
6
CONTINUOUS
10
3.5637259999999999
20
-1.3393169999999999
11
3.3421409999999998
21
-1.2799430000000001
0
LINE
8
BLACK
6
CONTINUOUS
10
3.3421409999999998
20
-1.2799430000000001
11
3.1147009999999997
21
-1.25
0
LINE
8
BLACK
6
CONTINUOUS
10
3.1147009999999997
20
-1.25
11
2.8852989999999998
21
-1.25
0
LINE
8
BLACK
6
CONTINUOUS
10
2.8852989999999998
20
-1.25
11
2.6578589999999997
21
-1.2799430000000001
0
LINE
8
BLACK
6
CONTINUOUS
10
2.6578589999999997
20
-1.2799430000000001
11
2.4362740000000001
21
-1.3393169999999999
0
LINE
8
BLACK
6
CONTINUOUS
10
2.4362740000000001
20
-1.3393169999999999
11
2.2243339999999998
21
-1.4271049999999998
0
LINE
8
BLACK
6
CONTINUOUS
10
2.2243339999999998
20
-1.4271049999999998
11
2.0256659999999997
21
-1.541806
0
LINE
8
BLACK
6
CONTINUOUS
10
2.0256659999999997
20
-1.541806
11
1.843669
21
-1.681457
0
LINE
8
BLACK
6
CONTINUOUS
10
1.843669
20
-1.681457
11
1.681457
21
-1.843669
0
LINE
8
BLACK
6
CONTINUOUS
10
1.681457
20
-1.843669
11
1.541806
21
-2.0256659999999997
0
LINE
8
BLACK
6
CONTINUOUS
10
1.541806
20
-2.0256659999999997
11
1.4271049999999998
21
-2.2243339999999998
0
LINE
8
BLACK
6
CONTINUOUS
10
1.4271049999999998
20
-2.2243339999999998
11
1.3393169999999999
21
-2.4362740000000001
0
LINE
8
BLACK
6
CONTINUOUS
10
1.3393169999999999
20
-2.4362740000000001
11
1.2799430000000001
21
-2.6578589999999997
0
LINE
8
BLACK
6
CONTINUOUS
10
1.2799430000000001
20
-2.6578589999999997
11
1.25
21
-2.8852989999999998
0
LINE
8
BLACK
6
CONTINUOUS
10
1.25
20
-2.8852989999999998
11
1.25
21
-3.1147009999999997
0
LINE
8
BLACK
6
CONTINUOUS
10
127.3609170000000006
20
-1.1855469999999999
11
127.5946629999999971
21
-1.2481789999999999
0
LINE
8
BLACK
6
CONTINUOUS
10
127.5946629999999971
20
-1.2481789999999999
11
127.8182339999999897
21
-1.3407849999999999
0
LINE
8
BLACK
6
CONTINUOUS
10
127.8182339999999897
20
-1.3407849999999999
11
128.0278050000000007
21
-1.461781
0
LINE
8
BLACK
6
CONTINUOUS
10
128.0278050000000007
20
-1.461781
11
128.219789999999989
21
-1.6090959999999999
0
LINE
8
BLACK
6
CONTINUOUS
10
128.219789999999989
20
-1.6090959999999999
11
128.3909040000000061
21
-1.7802099999999998
0
LINE
8
BLACK
6
CONTINUOUS
10
128.3909040000000061
20
-1.7802099999999998
11
128.538218999999998
21
-1.9721949999999999
0
LINE
8
BLACK
6
CONTINUOUS
10
128.538218999999998
20
-1.9721949999999999
11
128.659214999999989
21
-2.1817660000000001
0
LINE
8
BLACK
6
CONTINUOUS
10
128.659214999999989
20
-2.1817660000000001
11
128.7518210000000067
21
-2.4053369999999998
0
LINE
8
BLACK
6
CONTINUOUS
10
128.7518210000000067
20
-2.4053369999999998
11
128.8144529999999861
21
-2.6390829999999998
0
LINE
8
BLACK
6
CONTINUOUS
10
128.8144529999999861
20
-2.6390829999999998
11
128.8460389999999904
21
-2.8790039999999997
0
LINE
8
BLACK
6
CONTINUOUS
10
128.8460389999999904
20
-2.8790039999999997
11
128.8460389999999904
21
-3.1209959999999999
0
LINE
8
BLACK
6
CONTINUOUS
10
128.8460389999999904
20
-3.1209959999999999
11
128.8144529999999861
21
-3.3609169999999997
0
LINE
8
BLACK
6
CONTINUOUS
10
128.8144529999999861
20
-3.3609169999999997
11
128.7518210000000067
21
-3.5946629999999997
0
LINE
8
BLACK
6
CONTINUOUS
10
128.7518210000000067
20
-3.5946629999999997
11
128.659214999999989
21
-3.8182339999999999
0
LINE
8
BLACK
6
CONTINUOUS
10
128.659214999999989
20
-3.8182339999999999
11
128.538218999999998
21
-4.0278049999999999
0
LINE
8
BLACK
6
CONTINUOUS
10
128.538218999999998
20
-4.0278049999999999
11
128.3909040000000061
21
-4.2197899999999997
0
LINE
8
BLACK
6
CONTINUOUS
10
128.3909040000000061
20
-4.2197899999999997
11
128.219789999999989
21
-4.3909039999999999
0
LINE
8
BLACK
6
CONTINUOUS
10
128.219789999999989
20
-4.3909039999999999
11
128.0278050000000007
21
-4.5382189999999998
0
LINE
8
BLACK
6
CONTINUOUS
10
128.0278050000000007
20
-4.5382189999999998
11
127.8182339999999897
21
-4.6592149999999997
0
LINE
8
BLACK
6
CONTINUOUS
10
127.8182339999999897
20
-4.6592149999999997
11
127.5946629999999971
21
-4.7518209999999996
0
LINE
8
BLACK
6
CONTINUOUS
10
127.5946629999999971
20
-4.7518209999999996
11
127.3609170000000006
21
-4.8144529999999994
0
LINE
8
BLACK
6
CONTINUOUS
10
127.3609170000000006
20
-4.8144529999999994
11
127.120995999999991
21
-4.8460390000000002
0
LINE
8
BLACK
6
CONTINUOUS
10
127.120995999999991
20
-4.8460390000000002
11
126.8790039999999948
21
-4.8460390000000002
0
LINE
8
BLACK
6
CONTINUOUS
10
126.8790039999999948
20
-4.8460390000000002
11
126.6390829999999994
21
-4.8144529999999994
0
LINE
8
BLACK
6
CONTINUOUS
10
126.6390829999999994
20
-4.8144529999999994
11
126.4053369999999887
21
-4.7518209999999996
0
LINE
8
BLACK
6
CONTINUOUS
10
126.4053369999999887
20
-4.7518209999999996
11
126.1817659999999961
21
-4.6592149999999997
0
LINE
8
BLACK
6
CONTINUOUS
10
126.1817659999999961
20
-4.6592149999999997
11
125.9721949999999993
21
-4.5382189999999998
0
LINE
8
BLACK
6
CONTINUOUS
10
125.9721949999999993
20
-4.5382189999999998
11
125.7802099999999967
21
-4.3909039999999999
0
LINE
8
BLACK
6
CONTINUOUS
10
125.7802099999999967
20
-4.3909039999999999
11
125.6090959999999939
21
-4.2197899999999997
0
LINE
8
BLACK
6
CONTINUOUS
10
125.6090959999999939
20
-4.2197899999999997
11
125.4617809999999878
21
-4.0278049999999999
0
LINE
8
BLACK
6
CONTINUOUS
10
125.4617809999999878
20
-4.0278049999999999
11
125.3407849999999968
21
-3.8182339999999999
0
LINE
8
BLACK
6
CONTINUOUS
10
125.3407849999999968
20
-3.8182339999999999
11
125.2481789999999933
21
-3.5946629999999997
0
LINE
8
BLACK
6
CONTINUOUS
10
125.2481789999999933
20
-3.5946629999999997
11
125.1855469999999997
21
-3.3609169999999997
0
LINE
8
BLACK
6
CONTINUOUS
10
125.1855469999999997
20
-3.3609169999999997
11
125.1539609999999954
21
-3.1209959999999999
0
LINE
8
BLACK
6
CONTINUOUS
10
125.1539609999999954
20
-3.1209959999999999
11
125.1539609999999954
21
-2.8852989999999998
0
LINE
8
BLACK
6
CONTINUOUS
10
125.1539609999999954
20
-2.8852989999999998
11
125.1539609999999954
21
-2.8790039999999997
0
LINE
8
BLACK
6
CONTINUOUS
10
125.1539609999999954
20
-2.8790039999999997
11
125.1855469999999997
21
-2.6390829999999998
0
LINE
8
BLACK
6
CONTINUOUS
10
125.1855469999999997
20
-2.6390829999999998
11
125.2481789999999933
21
-2.4053369999999998
0
LINE
8
BLACK
6
CONTINUOUS
10
125.2481789999999933
20
-2.4053369999999998
11
125.3407849999999968
21
-2.1817660000000001
0
LINE
8
BLACK
6
CONTINUOUS
10
125.3407849999999968
20
-2.1817660000000001
11
125.4617809999999878
21
-1.9721949999999999
0
LINE
8
BLACK
6
CONTINUOUS
10
125.4617809999999878
20
-1.9721949999999999
11
125.6090959999999939
21
-1.7802099999999998
0
LINE
8
BLACK
6
CONTINUOUS
10
125.6090959999999939
20
-1.7802099999999998
11
125.7802099999999967
21
-1.6090959999999999
0
LINE
8
BLACK
6
CONTINUOUS
10
125.7802099999999967
20
-1.6090959999999999
11
125.9721949999999993
21
-1.461781
0
LINE
8
BLACK
6
CONTINUOUS
10
125.9721949999999993
20
-1.461781
11
126.1817659999999961
21
-1.3407849999999999
0
LINE
8
BLACK
6
CONTINUOUS
10
126.1817659999999961
20
-1.3407849999999999
11
126.4053369999999887
21
-1.2481789999999999
0
LINE
8
BLACK
6
CONTINUOUS
10
126.4053369999999887
20
-1.2481789999999999
11
126.6390829999999994
21
-1.1855469999999999
0
LINE
8
BLACK
6
CONTINUOUS
10
126.6390829999999994
20
-1.1855469999999999
11
126.8790039999999948
21
-1.153961
0
LINE
8
BLACK
6
CONTINUOUS
10
126.8790039999999948
20
-1.153961
11
127.120995999999991
21
-1.153961
0
LINE
8
BLACK
6
CONTINUOUS
10
127.120995999999991
20
-1.153961
11
127.3609170000000006
21
-1.1855469999999999
0
LINE
8
BLACK
6
CONTINUOUS
10
125.25
20
-3.1147009999999997
11
125.2799429999999887
21
-3.3421409999999998
0
LINE
8
BLACK
6
CONTINUOUS
10
125.2799429999999887
20
-3.3421409999999998
11
125.3393169999999941
21
-3.5637259999999999
0
LINE
8
BLACK
6
CONTINUOUS
10
125.3393169999999941
20
-3.5637259999999999
11
125.4271049999999974
21
-3.7756659999999997
0
LINE
8
BLACK
6
CONTINUOUS
10
125.4271049999999974
20
-3.7756659999999997
11
125.541805999999994
21
-3.9743339999999998
0
LINE
8
BLACK
6
CONTINUOUS
10
125.541805999999994
20
-3.9743339999999998
11
125.6814569999999947
21
-4.1563309999999998
0
LINE
8
BLACK
6
CONTINUOUS
10
125.6814569999999947
20
-4.1563309999999998
11
125.8436689999999913
21
-4.318543
0
LINE
8
BLACK
6
CONTINUOUS
10
125.8436689999999913
20
-4.318543
11
126.0256660000000011
21
-4.4581939999999998
0
LINE
8
BLACK
6
CONTINUOUS
10
126.0256660000000011
20
-4.4581939999999998
11
126.2243339999999989
21
-4.5728949999999999
0
LINE
8
BLACK
6
CONTINUOUS
10
126.2243339999999989
20
-4.5728949999999999
11
126.4362739999999974
21
-4.6606829999999997
0
LINE
8
BLACK
6
CONTINUOUS
10
126.4362739999999974
20
-4.6606829999999997
11
126.6578589999999878
21
-4.7200569999999997
0
LINE
8
BLACK
6
CONTINUOUS
10
126.6578589999999878
20
-4.7200569999999997
11
126.8852989999999892
21
-4.75
0
LINE
8
BLACK
6
CONTINUOUS
10
126.8852989999999892
20
-4.75
11
127.1147009999999966
21
-4.75
0
LINE
8
BLACK
6
CONTINUOUS
10
127.1147009999999966
20
-4.75
11
127.342140999999998
21
-4.7200569999999997
0
LINE
8
BLACK
6
CONTINUOUS
10
127.342140999999998
20
-4.7200569999999997
11
127.5637259999999884
21
-4.6606829999999997
0
LINE
8
BLACK
6
CONTINUOUS
10
127.5637259999999884
20
-4.6606829999999997
11
127.7756660000000011
21
-4.5728949999999999
0
LINE
8
BLACK
6
CONTINUOUS
10
127.7756660000000011
20
-4.5728949999999999
11
127.9743339999999989
21
-4.4581939999999998
0
LINE
8
BLACK
6
CONTINUOUS
10
127.9743339999999989
20
-4.4581939999999998
11
128.1563309999999944
21
-4.318543
0
LINE
8
BLACK
6
CONTINUOUS
10
128.1563309999999944
20
-4.318543
11
128.3185430000000053
21
-4.1563309999999998
0
LINE
8
BLACK
6
CONTINUOUS
10
128.3185430000000053
20
-4.1563309999999998
11
128.4581939999999918
21
-3.9743339999999998
0
LINE
8
BLACK
6
CONTINUOUS
10
128.4581939999999918
20
-3.9743339999999998
11
128.5728949999999884
21
-3.7756659999999997
0
LINE
8
BLACK
6
CONTINUOUS
10
128.5728949999999884
20
-3.7756659999999997
11
128.6606830000000059
21
-3.5637259999999999
0
LINE
8
BLACK
6
CONTINUOUS
10
128.6606830000000059
20
-3.5637259999999999
11
128.7200569999999971
21
-3.3421409999999998
0
LINE
8
BLACK
6
CONTINUOUS
10
128.7200569999999971
20
-3.3421409999999998
11
128.75
21
-3.1147009999999997
0
LINE
8
BLACK
6
CONTINUOUS
10
128.75
20
-3.1147009999999997
11
128.75
21
-2.8852989999999998
0
LINE
8
BLACK
6
CONTINUOUS
10
128.75
20
-2.8852989999999998
11
128.7200569999999971
21
-2.6578589999999997
0
LINE
8
BLACK
6
CONTINUOUS
10
128.7200569999999971
20
-2.6578589999999997
11
128.6606830000000059
21
-2.4362740000000001
0
LINE
8
BLACK
6
CONTINUOUS
10
128.6606830000000059
20
-2.4362740000000001
11
128.5728949999999884
21
-2.2243339999999998
0
LINE
8
BLACK
6
CONTINUOUS
10
128.5728949999999884
20
-2.2243339999999998
11
128.4581939999999918
21
-2.0256659999999997
0
LINE
8
BLACK
6
CONTINUOUS
10
128.4581939999999918
20
-2.0256659999999997
11
128.3185430000000053
21
-1.843669
0
LINE
8
BLACK
6
CONTINUOUS
10
128.3185430000000053
20
-1.843669
11
128.1563309999999944
21
-1.681457
0
LINE
8
BLACK
6
CONTINUOUS
10
128.1563309999999944
20
-1.681457
11
127.9743339999999989
21
-1.541806
0
LINE
8
BLACK
6
CONTINUOUS
10
127.9743339999999989
20
-1.541806
11
127.7756660000000011
21
-1.4271049999999998
0
LINE
8
BLACK
6
CONTINUOUS
10
127.7756660000000011
20
-1.4271049999999998
11
127.5637259999999884
21
-1.3393169999999999
0
LINE
8
BLACK
6
CONTINUOUS
10
127.5637259999999884
20
-1.3393169999999999
11
127.342140999999998
21
-1.2799430000000001
0
LINE
8
BLACK
6
CONTINUOUS
10
127.342140999999998
20
-1.2799430000000001
11
127.1147009999999966
21
-1.25
0
LINE
8
BLACK
6
CONTINUOUS
10
127.1147009999999966
20
-1.25
11
126.8852989999999892
21
-1.25
0
LINE
8
BLACK
6
CONTINUOUS
10
126.8852989999999892
20
-1.25
11
126.6578589999999878
21
-1.2799430000000001
0
LINE
8
BLACK
6
CONTINUOUS
10
126.6578589999999878
20
-1.2799430000000001
11
126.4362739999999974
21
-1.3393169999999999
0
LINE
8
BLACK
6
CONTINUOUS
10
126.4362739999999974
20
-1.3393169999999999
11
126.2243339999999989
21
-1.4271049999999998
0
LINE
8
BLACK
6
CONTINUOUS
10
126.2243339999999989
20
-1.4271049999999998
11
126.0256660000000011
21
-1.541806
0
LINE
8
BLACK
6
CONTINUOUS
10
126.0256660000000011
20
-1.541806
11
125.8436689999999913
21
-1.681457
0
LINE
8
BLACK
6
CONTINUOUS
10
125.8436689999999913
20
-1.681457
11
125.6814569999999947
21
-1.843669
0
LINE
8
BLACK
6
CONTINUOUS
10
125.6814569999999947
20
-1.843669
11
125.541805999999994
21
-2.0256659999999997
0
LINE
8
BLACK
6
CONTINUOUS
10
125.541805999999994
20
-2.0256659999999997
11
125.4271049999999974
21
-2.2243339999999998
0
LINE
8
BLACK
6
CONTINUOUS
10
125.4271049999999974
20
-2.2243339999999998
11
125.3393169999999941
21
-2.4362740000000001
0
LINE
8
BLACK
6
CONTINUOUS
10
125.3393169999999941
20
-2.4362740000000001
11
125.2799429999999887
21
-2.6578589999999997
0
LINE
8
BLACK
6
CONTINUOUS
10
125.2799429999999887
20
-2.6578589999999997
11
125.25
21
-2.8852989999999998
0
LINE
8
BLACK
6
CONTINUOUS
10
125.25
20
-2.8852989999999998
11
125.25
21
-3.1147009999999997
0
LINE
8
BLACK
6
CONTINUOUS
10
130.0195089999999993
20
0.098079
11
130.0555569999999932
21
0.083147
0
LINE
8
BLACK
6
CONTINUOUS
10
130.0555569999999932
20
0.083147
11
130.0831469999999968
21
0.055557
0
LINE
8
BLACK
6
CONTINUOUS
10
130.0831469999999968
20
0.055557
11
130.0980789999999843
21
0.019509
0
LINE
8
BLACK
6
CONTINUOUS
10
130.0980789999999843
20
0.019509
11
130.0999999999999943
21
0.
0
LINE
8
BLACK
6
CONTINUOUS
10
130.0999999999999943
20
0.
11
130.0999999999999943
21
-140.
0
LINE
8
BLACK
6
CONTINUOUS
10
130.0999999999999943
20
-140.
11
130.0980789999999843
21
-140.0195089999999993
0
LINE
8
BLACK
6
CONTINUOUS
10
130.0980789999999843
20
-140.0195089999999993
11
130.0831469999999968
21
-140.0555569999999932
0
LINE
8
BLACK
6
CONTINUOUS
10
130.0831469999999968
20
-140.0555569999999932
11
130.0555569999999932
21
-140.0831469999999968
0
LINE
8
BLACK
6
CONTINUOUS
10
130.0555569999999932
20
-140.0831469999999968
11
130.0195089999999993
21
-140.0980789999999843
0
LINE
8
BLACK
6
CONTINUOUS
10
130.0195089999999993
20
-140.0980789999999843
11
130.
21
-140.0999999999999943
0
LINE
8
BLACK
6
CONTINUOUS
10
130.
20
-140.0999999999999943
11
0.
21
-140.0999999999999943
0
LINE
8
BLACK
6
CONTINUOUS
10
0.
20
-140.0999999999999943
11
-0.019509
21
-140.0980789999999843
0
LINE
8
BLACK
6
CONTINUOUS
10
-0.019509
20
-140.0980789999999843
11
-0.055557
21
-140.0831469999999968
0
LINE
8
BLACK
6
CONTINUOUS
10
-0.055557
20
-140.0831469999999968
11
-0.083147
21
-140.0555569999999932
0
LINE
8
BLACK
6
CONTINUOUS
10
-0.083147
20
-140.0555569999999932
11
-0.098079
21
-140.0195089999999993
0
LINE
8
BLACK
6
CONTINUOUS
10
-0.098079
20
-140.0195089999999993
11
-0.1
21
-140.
0
LINE
8
BLACK
6
CONTINUOUS
10
-0.1
20
-140.
11
-0.1
21
0.
0
LINE
8
BLACK
6
CONTINUOUS
10
-0.1
20
0.
11
-0.098079
21
0.019509
0
LINE
8
BLACK
6
CONTINUOUS
10
-0.098079
20
0.019509
11
-0.083147
21
0.055557
0
LINE
8
BLACK
6
CONTINUOUS
10
-0.083147
20
0.055557
11
-0.055557
21
0.083147
0
LINE
8
BLACK
6
CONTINUOUS
10
-0.055557
20
0.083147
11
-0.019509
21
0.098079
0
LINE
8
BLACK
6
CONTINUOUS
10
-0.019509
20
0.098079
11
0.
21
0.1
0
LINE
8
BLACK
6
CONTINUOUS
10
0.
20
0.1
11
130.
21
0.1
0
LINE
8
BLACK
6
CONTINUOUS
10
130.
20
0.1
11
130.0195089999999993
21
0.098079
0
LINE
8
BLACK
6
CONTINUOUS
10
0.1
20
-0.1
11
0.1
21
-139.9000000000000057
0
LINE
8
BLACK
6
CONTINUOUS
10
0.1
20
-139.9000000000000057
11
129.9000000000000057
21
-139.9000000000000057
0
LINE
8
BLACK
6
CONTINUOUS
10
129.9000000000000057
20
-139.9000000000000057
11
129.9000000000000057
21
-0.1
0
LINE
8
BLACK
6
CONTINUOUS
10
129.9000000000000057
20
-0.1
11
0.1
21
-0.1
0
CIRCLE
8
BLACK
10
13.4740000000000002
20
-125.4009999999999962
40
0.175
0
CIRCLE
8
BLACK
10
13.4740000000000002
20
-122.86099999999999
40
0.175
0
CIRCLE
8
BLACK
10
16.0139999999999993
20
-125.4009999999999962
40
0.175
0
CIRCLE
8
BLACK
10
16.0139999999999993
20
-122.86099999999999
40
0.175
0
CIRCLE
8
BLACK
10
18.5539999999999985
20
-125.4009999999999962
40
0.175
0
CIRCLE
8
BLACK
10
18.5539999999999985
20
-122.86099999999999
40
0.175
0
CIRCLE
8
BLACK
10
21.0939999999999976
20
-125.4009999999999962
40
0.175
0
CIRCLE
8
BLACK
10
21.0939999999999976
20
-122.86099999999999
40
0.175
0
CIRCLE
8
BLACK
10
23.6340000000000003
20
-125.4009999999999962
40
0.175
0
CIRCLE
8
BLACK
10
23.6340000000000003
20
-122.86099999999999
40
0.175
0
CIRCLE
8
BLACK
10
26.1739999999999995
20
-125.4009999999999962
40
0.175
0
CIRCLE
8
BLACK
10
26.1739999999999995
20
-122.86099999999999
40
0.175
0
CIRCLE
8
BLACK
10
28.7139999999999986
20
-125.4009999999999962
40
0.175
0
CIRCLE
8
BLACK
10
28.7139999999999986
20
-122.86099999999999
40
0.175
0
CIRCLE
8
BLACK
10
113.8039999999999878
20
-134.1639999999999873
40
0.175
0
CIRCLE
8
BLACK
10
118.8039999999999878
20
-134.1639999999999873
40
0.175
0
CIRCLE
8
BLACK
10
99.5799999999999983
20
-43.7399999999999949
40
0.175
0
CIRCLE
8
BLACK
10
119.8999999999999915
20
-15.7999999999999989
40
0.175
0
CIRCLE
8
BLACK
10
104.6599999999999966
20
-43.7399999999999949
40
0.175
0
CIRCLE
8
BLACK
10
114.8199999999999932
20
-15.7999999999999989
40
0.175
0
CIRCLE
8
BLACK
10
109.7399999999999949
20
-43.7399999999999949
40
0.175
0
CIRCLE
8
BLACK
10
114.8199999999999932
20
-43.7399999999999949
40
0.175
0
CIRCLE
8
BLACK
10
119.8999999999999915
20
-43.7399999999999949
40
0.175
0
CIRCLE
8
BLACK
10
112.2800000000000011
20
-43.7399999999999949
40
0.175
0
CIRCLE
8
BLACK
10
117.3599999999999994
20
-43.7399999999999949
40
0.175
0
CIRCLE
8
BLACK
10
117.3599999999999994
20
-15.7999999999999989
40
0.175
0
CIRCLE
8
BLACK
10
107.1999999999999886
20
-43.7399999999999949
40
0.175
0
CIRCLE
8
BLACK
10
102.1199999999999903
20
-43.7399999999999949
40
0.175
0
CIRCLE
8
BLACK
10
40.652000000000001
20
-134.1639999999999873
40
0.175
0
CIRCLE
8
BLACK
10
45.652000000000001
20
-134.1639999999999873
40
0.175
0
CIRCLE
8
BLACK
10
73.4179999999999922
20
-52.8840000000000003
40
0.175
0
CIRCLE
8
BLACK
10
78.4979999999999905
20
-52.8840000000000003
40
0.175
0
CIRCLE
8
BLACK
10
63.2579999999999956
20
-78.2839999999999918
40
0.175
0
CIRCLE
8
BLACK
10
68.3379999999999939
20
-78.2839999999999918
40
0.175
0
CIRCLE
8
BLACK
10
73.4179999999999922
20
-78.2839999999999918
40
0.175
0
CIRCLE
8
BLACK
10
78.4979999999999905
20
-78.2839999999999918
40
0.175
0
CIRCLE
8
BLACK
10
65.7980000000000018
20
-78.2839999999999918
40
0.175
0
CIRCLE
8
BLACK
10
75.9579999999999984
20
-78.2839999999999918
40
0.175
0
CIRCLE
8
BLACK
10
75.9579999999999984
20
-52.8840000000000003
40
0.175
0
CIRCLE
8
BLACK
10
101.652000000000001
20
-134.1599999999999966
40
0.175
0
CIRCLE
8
BLACK
10
106.652000000000001
20
-134.1599999999999966
40
0.175
0
CIRCLE
8
BLACK
10
14.9929999999999986
20
-22.907
40
0.175
0
CIRCLE
8
BLACK
10
14.9929999999999986
20
-25.4469999999999992
40
0.175
0
CIRCLE
8
BLACK
10
12.4529999999999994
20
-22.907
40
0.175
0
CIRCLE
8
BLACK
10
12.4529999999999994
20
-25.4469999999999992
40
0.175
0
CIRCLE
8
BLACK
10
9.9130000000000003
20
-22.907
40
0.175
0
CIRCLE
8
BLACK
10
9.9130000000000003
20
-25.4469999999999992
40
0.175
0
CIRCLE
8
BLACK
10
7.3729999999999993
20
-22.907
40
0.175
0
CIRCLE
8
BLACK
10
7.3729999999999993
20
-25.4469999999999992
40
0.175
0
CIRCLE
8
BLACK
10
4.8330000000000002
20
-22.907
40
0.175
0
CIRCLE
8
BLACK
10
4.8330000000000002
20
-25.4469999999999992
40
0.175
0
CIRCLE
8
BLACK
10
64.2740000000000009
20
-46.0899999999999963
40
0.175
0
CIRCLE
8
BLACK
10
66.813999999999993
20
-46.0899999999999963
40
0.175
0
CIRCLE
8
BLACK
10
69.3539999999999992
20
-46.0899999999999963
40
0.175
0
CIRCLE
8
BLACK
10
36.3999999999999986
20
-95.789999999999992
40
0.175
0
CIRCLE
8
BLACK
10
36.3999999999999986
20
-103.4099999999999966
40
0.175
0
CIRCLE
8
BLACK
10
61.3529999999999944
20
-122.86099999999999
40
0.175
0
CIRCLE
8
BLACK
10
61.3529999999999944
20
-125.4009999999999962
40
0.175
0
CIRCLE
8
BLACK
10
58.8129999999999953
20
-122.86099999999999
40
0.175
0
CIRCLE
8
BLACK
10
58.8129999999999953
20
-125.4009999999999962
40
0.175
0
CIRCLE
8
BLACK
10
56.2729999999999961
20
-122.86099999999999
40
0.175
0
CIRCLE
8
BLACK
10
56.2729999999999961
20
-125.4009999999999962
40
0.175
0
CIRCLE
8
BLACK
10
53.732999999999997
20
-122.86099999999999
40
0.175
0
CIRCLE
8
BLACK
10
53.732999999999997
20
-125.4009999999999962
40
0.175
0
CIRCLE
8
BLACK
10
51.1929999999999978
20
-122.86099999999999
40
0.175
0
CIRCLE
8
BLACK
10
51.1929999999999978
20
-125.4009999999999962
40
0.175
0
CIRCLE
8
BLACK
10
48.6529999999999987
20
-122.86099999999999
40
0.175
0
CIRCLE
8
BLACK
10
48.6529999999999987
20
-125.4009999999999962
40
0.175
0
CIRCLE
8
BLACK
10
46.1129999999999995
20
-122.86099999999999
40
0.175
0
CIRCLE
8
BLACK
10
46.1129999999999995
20
-125.4009999999999962
40
0.175
0
CIRCLE
8
BLACK
10
43.5730000000000004
20
-122.86099999999999
40
0.175
0
CIRCLE
8
BLACK
10
43.5730000000000004
20
-125.4009999999999962
40
0.175
0
CIRCLE
8
BLACK
10
52.5899999999999963
20
-114.8599999999999994
40
0.175
0
CIRCLE
8
BLACK
10
52.5899999999999963
20
-112.3599999999999994
40
0.175
0
CIRCLE
8
BLACK
10
50.0899999999999963
20
-112.3599999999999994
40
0.175
0
CIRCLE
8
BLACK
10
52.5899999999999963
20
-109.8599999999999994
40
0.175
0
CIRCLE
8
BLACK
10
13.7279999999999998
20
-12.7519999999999989
40
0.175
0
CIRCLE
8
BLACK
10
8.7279999999999998
20
-12.7519999999999989
40
0.175
0
CIRCLE
8
BLACK
10
119.8999999999999915
20
-90.7299999999999898
40
0.175
0
CIRCLE
8
BLACK
10
117.3599999999999994
20
-90.7299999999999898
40
0.175
0
CIRCLE
8
BLACK
10
114.8199999999999932
20
-90.7299999999999898
40
0.175
0
CIRCLE
8
BLACK
10
112.2800000000000011
20
-123.75
40
0.175
0
CIRCLE
8
BLACK
10
117.3599999999999994
20
-123.75
40
0.175
0
CIRCLE
8
BLACK
10
122.4399999999999977
20
-123.75
40
0.175
0
CIRCLE
8
BLACK
10
114.8199999999999932
20
-123.75
40
0.175
0
CIRCLE
8
BLACK
10
119.8999999999999915
20
-123.75
40
0.175
0
CIRCLE
8
BLACK
10
22.
20
-132.6999999999999886
40
0.175
0
CIRCLE
8
BLACK
10
19.5
20
-132.6999999999999886
40
0.175
0
CIRCLE
8
BLACK
10
17.
20
-132.6999999999999886
40
0.175
0
CIRCLE
8
BLACK
10
14.5
20
-132.6999999999999886
40
0.175
0
CIRCLE
8
BLACK
10
28.4599999999999973
20
-134.1639999999999873
40
0.175
0
CIRCLE
8
BLACK
10
33.4600000000000009
20
-134.1639999999999873
40
0.175
0
CIRCLE
8
BLACK
10
52.8439999999999941
20
-134.1599999999999966
40
0.175
0
CIRCLE
8
BLACK
10
57.8439999999999941
20
-134.1599999999999966
40
0.175
0
CIRCLE
8
BLACK
10
65.0759999999999934
20
-134.1560000000000059
40
0.175
0
CIRCLE
8
BLACK
10
70.0759999999999934
20
-134.1560000000000059
40
0.175
0
CIRCLE
8
BLACK
10
77.2680000000000007
20
-134.1599999999999966
40
0.175
0
CIRCLE
8
BLACK
10
82.2680000000000007
20
-134.1599999999999966
40
0.175
0
CIRCLE
8
BLACK
10
78.4979999999999905
20
-36.3739999999999952
40
0.175
0
CIRCLE
8
BLACK
10
63.2579999999999956
20
-36.3739999999999952
40
0.175
0
CIRCLE
8
BLACK
10
29.7699999999999996
20
-43.4899999999999949
40
0.175
0
CIRCLE
8
BLACK
10
29.7699999999999996
20
-46.0300000000000011
40
0.175
0
CIRCLE
8
BLACK
10
32.3099999999999952
20
-43.4899999999999949
40
0.175
0
CIRCLE
8
BLACK
10
32.3099999999999952
20
-46.0300000000000011
40
0.175
0
CIRCLE
8
BLACK
10
34.8500000000000014
20
-43.4899999999999949
40
0.175
0
CIRCLE
8
BLACK
10
34.8500000000000014
20
-46.0300000000000011
40
0.175
0
CIRCLE
8
BLACK
10
37.3900000000000006
20
-43.4899999999999949
40
0.175
0
CIRCLE
8
BLACK
10
37.3900000000000006
20
-46.0300000000000011
40
0.175
0
CIRCLE
8
BLACK
10
39.9299999999999997
20
-43.4899999999999949
40
0.175
0
CIRCLE
8
BLACK
10
39.9299999999999997
20
-46.0300000000000011
40
0.175
0
CIRCLE
8
BLACK
10
42.4699999999999989
20
-43.4899999999999949
40
0.175
0
CIRCLE
8
BLACK
10
42.4699999999999989
20
-46.0300000000000011
40
0.175
0
CIRCLE
8
BLACK
10
109.2319999999999993
20
-52.8840000000000003
40
0.175
0
CIRCLE
8
BLACK
10
114.3119999999999976
20
-52.8840000000000003
40
0.175
0
CIRCLE
8
BLACK
10
99.0719999999999885
20
-78.2839999999999918
40
0.175
0
CIRCLE
8
BLACK
10
104.152000000000001
20
-78.2839999999999918
40
0.175
0
CIRCLE
8
BLACK
10
109.2319999999999993
20
-78.2839999999999918
40
0.175
0
CIRCLE
8
BLACK
10
114.3119999999999976
20
-78.2839999999999918
40
0.175
0
CIRCLE
8
BLACK
10
101.6119999999999948
20
-78.2839999999999918
40
0.175
0
CIRCLE
8
BLACK
10
111.7719999999999914
20
-78.2839999999999918
40
0.175
0
CIRCLE
8
BLACK
10
111.7719999999999914
20
-52.8840000000000003
40
0.175
0
CIRCLE
8
BLACK
10
9.4100000000000001
20
-127.6199999999999903
40
0.175
0
CIRCLE
8
BLACK
10
6.8700000000000001
20
-127.6199999999999903
40
0.175
0
CIRCLE
8
BLACK
10
9.4100000000000001
20
-125.0799999999999983
40
0.175
0
CIRCLE
8
BLACK
10
6.8700000000000001
20
-125.0799999999999983
40
0.175
0
CIRCLE
8
BLACK
10
9.4100000000000001
20
-122.539999999999992
40
0.175
0
CIRCLE
8
BLACK
10
6.8700000000000001
20
-122.539999999999992
40
0.175
0
CIRCLE
8
BLACK
10
9.4100000000000001
20
-120.
40
0.175
0
CIRCLE
8
BLACK
10
6.8700000000000001
20
-120.
40
0.175
0
CIRCLE
8
BLACK
10
9.4100000000000001
20
-117.4599999999999937
40
0.175
0
CIRCLE
8
BLACK
10
6.8700000000000001
20
-117.4599999999999937
40
0.175
0
CIRCLE
8
BLACK
10
89.5
20
-134.1639999999999873
40
0.175
0
CIRCLE
8
BLACK
10
94.5
20
-134.1639999999999873
40
0.175
0
CIRCLE
8
BLACK
10
52.6515999999999948
20
-96.7098000000000013
40
0.175
0
CIRCLE
8
BLACK
10
52.6515999999999948
20
-94.2098000000000013
40
0.175
0
CIRCLE
8
BLACK
10
50.1515999999999948
20
-94.2098000000000013
40
0.175
0
CIRCLE
8
BLACK
10
52.6515999999999948
20
-91.7098000000000013
40
0.175
0
CIRCLE
8
BLACK
10
9.4499999999999993
20
-43.4899999999999949
40
0.175
0
CIRCLE
8
BLACK
10
9.4499999999999993
20
-46.0300000000000011
40
0.175
0
CIRCLE
8
BLACK
10
11.9900000000000002
20
-43.4899999999999949
40
0.175
0
CIRCLE
8
BLACK
10
11.9900000000000002
20
-46.0300000000000011
40
0.175
0
CIRCLE
8
BLACK
10
14.5299999999999994
20
-43.4899999999999949
40
0.175
0
CIRCLE
8
BLACK
10
14.5299999999999994
20
-46.0300000000000011
40
0.175
0
CIRCLE
8
BLACK
10
17.0700000000000003
20
-43.4899999999999949
40
0.175
0
CIRCLE
8
BLACK
10
17.0700000000000003
20
-46.0300000000000011
40
0.175
0
CIRCLE
8
BLACK
10
19.6099999999999994
20
-43.4899999999999949
40
0.175
0
CIRCLE
8
BLACK
10
19.6099999999999994
20
-46.0300000000000011
40
0.175
0
CIRCLE
8
BLACK
10
22.1499999999999986
20
-43.4899999999999949
40
0.175
0
CIRCLE
8
BLACK
10
22.1499999999999986
20
-46.0300000000000011
40
0.175
0
CIRCLE
8
BLACK
10
119.8999999999999915
20
-5.6440000000000001
40
0.175
0
CIRCLE
8
BLACK
10
114.8999999999999915
20
-5.6440000000000001
40
0.175
0
CIRCLE
8
BLACK
10
28.5799999999999983
20
-108.1999999999999886
40
0.175
0
CIRCLE
8
BLACK
10
36.1999999999999957
20
-108.1999999999999886
40
0.175
0
CIRCLE
8
BLACK
10
103.3900000000000006
20
-99.6199999999999903
40
0.175
0
CIRCLE
8
BLACK
10
103.3900000000000006
20
-97.0799999999999983
40
0.175
0
CIRCLE
8
BLACK
10
103.3900000000000006
20
-94.539999999999992
40
0.175
0
CIRCLE
8
BLACK
10
103.3900000000000006
20
-92.
40
0.175
0
CIRCLE
8
BLACK
10
62.75
20
-89.4599999999999937
40
0.175
0
CIRCLE
8
BLACK
10
62.75
20
-94.539999999999992
40
0.175
0
CIRCLE
8
BLACK
10
62.75
20
-99.6199999999999903
40
0.175
0
CIRCLE
8
BLACK
10
62.75
20
-104.6999999999999886
40
0.175
0
CIRCLE
8
BLACK
10
62.75
20
-109.7800000000000011
40
0.175
0
CIRCLE
8
BLACK
10
62.75
20
-114.8599999999999994
40
0.175
0
CIRCLE
8
BLACK
10
62.75
20
-92.
40
0.175
0
CIRCLE
8
BLACK
10
62.75
20
-97.0799999999999983
40
0.175
0
CIRCLE
8
BLACK
10
62.75
20
-102.1599999999999966
40
0.175
0
CIRCLE
8
BLACK
10
62.75
20
-107.2399999999999949
40
0.175
0
CIRCLE
8
BLACK
10
62.75
20
-112.3199999999999932
40
0.175
0
CIRCLE
8
BLACK
10
19.5845999999999982
20
-10.5969999999999995
40
0.175
0
CIRCLE
8
BLACK
10
19.5845999999999982
20
-28.3769999999999989
40
0.175
0
CIRCLE
8
BLACK
10
60.2245999999999952
20
-28.3769999999999989
40
0.175
0
CIRCLE
8
BLACK
10
60.2245999999999952
20
-10.5969999999999995
40
0.175
0
CIRCLE
8
BLACK
10
19.5845999999999982
20
-25.8369999999999997
40
0.175
0
CIRCLE
8
BLACK
10
19.5845999999999982
20
-23.2970000000000006
40
0.175
0
CIRCLE
8
BLACK
10
19.5845999999999982
20
-20.7569999999999979
40
0.175
0
CIRCLE
8
BLACK
10
19.5845999999999982
20
-18.2169999999999987
40
0.175
0
CIRCLE
8
BLACK
10
19.5845999999999982
20
-15.6769999999999996
40
0.175
0
CIRCLE
8
BLACK
10
19.5845999999999982
20
-13.1369999999999987
40
0.175
0
CIRCLE
8
BLACK
10
60.2245999999999952
20
-25.8369999999999997
40
0.175
0
CIRCLE
8
BLACK
10
60.2245999999999952
20
-23.2970000000000006
40
0.175
0
CIRCLE
8
BLACK
10
60.2245999999999952
20
-20.7569999999999979
40
0.175
0
CIRCLE
8
BLACK
10
60.2245999999999952
20
-18.2169999999999987
40
0.175
0
CIRCLE
8
BLACK
10
60.2245999999999952
20
-15.6769999999999996
40
0.175
0
CIRCLE
8
BLACK
10
60.2245999999999952
20
-13.1369999999999987
40
0.175
0
CIRCLE
8
BLACK
10
104.6599999999999966
20
-5.6440000000000001
40
0.175
0
CIRCLE
8
BLACK
10
99.6599999999999966
20
-5.6440000000000001
40
0.175
0
CIRCLE
8
BLACK
10
45.009999999999998
20
-108.1700000000000017
40
0.175
0
CIRCLE
8
BLACK
10
42.4699999999999989
20
-108.1700000000000017
40
0.175
0
CIRCLE
8
BLACK
10
45.009999999999998
20
-105.6299999999999955
40
0.175
0
CIRCLE
8
BLACK
10
42.4699999999999989
20
-105.6299999999999955
40
0.175
0
CIRCLE
8
BLACK
10
45.009999999999998
20
-103.0899999999999892
40
0.175
0
CIRCLE
8
BLACK
10
42.4699999999999989
20
-103.0899999999999892
40
0.175
0
CIRCLE
8
BLACK
10
45.009999999999998
20
-100.5499999999999972
40
0.175
0
CIRCLE
8
BLACK
10
42.4699999999999989
20
-100.5499999999999972
40
0.175
0
CIRCLE
8
BLACK
10
45.009999999999998
20
-98.0099999999999909
40
0.175
0
CIRCLE
8
BLACK
10
42.4699999999999989
20
-98.0099999999999909
40
0.175
0
CIRCLE
8
BLACK
10
45.009999999999998
20
-95.4699999999999989
40
0.175
0
CIRCLE
8
BLACK
10
42.4699999999999989
20
-95.4699999999999989
40
0.175
0
CIRCLE
8
BLACK
10
45.009999999999998
20
-92.9299999999999926
40
0.175
0
CIRCLE
8
BLACK
10
42.4699999999999989
20
-92.9299999999999926
40
0.175
0
CIRCLE
8
BLACK
10
45.009999999999998
20
-90.3900000000000006
40
0.175
0
CIRCLE
8
BLACK
10
42.4699999999999989
20
-90.3900000000000006
40
0.175
0
CIRCLE
8
BLACK
10
45.009999999999998
20
-87.8499999999999943
40
0.175
0
CIRCLE
8
BLACK
10
42.4699999999999989
20
-87.8499999999999943
40
0.175
0
CIRCLE
8
BLACK
10
45.009999999999998
20
-85.3100000000000023
40
0.175
0
CIRCLE
8
BLACK
10
42.4699999999999989
20
-85.3100000000000023
40
0.175
0
CIRCLE
8
BLACK
10
45.009999999999998
20
-82.769999999999996
40
0.175
0
CIRCLE
8
BLACK
10
42.4699999999999989
20
-82.769999999999996
40
0.175
0
CIRCLE
8
BLACK
10
45.009999999999998
20
-80.2299999999999898
40
0.175
0
CIRCLE
8
BLACK
10
42.4699999999999989
20
-80.2299999999999898
40
0.175
0
CIRCLE
8
BLACK
10
45.009999999999998
20
-77.6899999999999977
40
0.175
0
CIRCLE
8
BLACK
10
42.4699999999999989
20
-77.6899999999999977
40
0.175
0
CIRCLE
8
BLACK
10
45.009999999999998
20
-75.1499999999999915
40
0.175
0
CIRCLE
8
BLACK
10
42.4699999999999989
20
-75.1499999999999915
40
0.175
0
CIRCLE
8
BLACK
10
45.009999999999998
20
-72.6099999999999994
40
0.175
0
CIRCLE
8
BLACK
10
42.4699999999999989
20
-72.6099999999999994
40
0.175
0
CIRCLE
8
BLACK
10
45.009999999999998
20
-70.0699999999999932
40
0.175
0
CIRCLE
8
BLACK
10
42.4699999999999989
20
-70.0699999999999932
40
0.175
0
CIRCLE
8
BLACK
10
45.009999999999998
20
-67.5300000000000011
40
0.175
0
CIRCLE
8
BLACK
10
42.4699999999999989
20
-67.5300000000000011
40
0.175
0
CIRCLE
8
BLACK
10
45.009999999999998
20
-64.9899999999999949
40
0.175
0
CIRCLE
8
BLACK
10
42.4699999999999989
20
-64.9899999999999949
40
0.175
0
CIRCLE
8
BLACK
10
45.009999999999998
20
-62.4499999999999957
40
0.175
0
CIRCLE
8
BLACK
10
42.4699999999999989
20
-62.4499999999999957
40
0.175
0
CIRCLE
8
BLACK
10
45.009999999999998
20
-59.9099999999999966
40
0.175
0
CIRCLE
8
BLACK
10
42.4699999999999989
20
-59.9099999999999966
40
0.175
0
CIRCLE
8
BLACK
10
45.009999999999998
20
-57.3699999999999974
40
0.175
0
CIRCLE
8
BLACK
10
42.4699999999999989
20
-57.3699999999999974
40
0.175
0
CIRCLE
8
BLACK
10
45.009999999999998
20
-54.8299999999999983
40
0.175
0
CIRCLE
8
BLACK
10
42.4699999999999989
20
-54.8299999999999983
40
0.175
0
CIRCLE
8
BLACK
10
38.6199999999999974
20
-101.8551999999999964
40
0.175
0
CIRCLE
8
BLACK
10
38.6199999999999974
20
-94.2351999999999919
40
0.175
0
CIRCLE
8
BLACK
10
53.7075999999999993
20
-68.8859999999999957
40
0.175
0
CIRCLE
8
BLACK
10
61.3275999999999968
20
-68.8859999999999957
40
0.175
0
CIRCLE
8
BLACK
10
9.4499999999999993
20
-108.1700000000000017
40
0.175
0
CIRCLE
8
BLACK
10
6.9099999999999993
20
-108.1700000000000017
40
0.175
0
CIRCLE
8
BLACK
10
9.4499999999999993
20
-105.6299999999999955
40
0.175
0
CIRCLE
8
BLACK
10
6.9099999999999993
20
-105.6299999999999955
40
0.175
0
CIRCLE
8
BLACK
10
9.4499999999999993
20
-103.0899999999999892
40
0.175
0
CIRCLE
8
BLACK
10
6.9099999999999993
20
-103.0899999999999892
40
0.175
0
CIRCLE
8
BLACK
10
9.4499999999999993
20
-100.5499999999999972
40
0.175
0
CIRCLE
8
BLACK
10
6.9099999999999993
20
-100.5499999999999972
40
0.175
0
CIRCLE
8
BLACK
10
9.4499999999999993
20
-98.0099999999999909
40
0.175
0
CIRCLE
8
BLACK
10
6.9099999999999993
20
-98.0099999999999909
40
0.175
0
CIRCLE
8
BLACK
10
9.4499999999999993
20
-95.4699999999999989
40
0.175
0
CIRCLE
8
BLACK
10
6.9099999999999993
20
-95.4699999999999989
40
0.175
0
CIRCLE
8
BLACK
10
9.4499999999999993
20
-92.9299999999999926
40
0.175
0
CIRCLE
8
BLACK
10
6.9099999999999993
20
-92.9299999999999926
40
0.175
0
CIRCLE
8
BLACK
10
9.4499999999999993
20
-90.3900000000000006
40
0.175
0
CIRCLE
8
BLACK
10
6.9099999999999993
20
-90.3900000000000006
40
0.175
0
CIRCLE
8
BLACK
10
9.4499999999999993
20
-87.8499999999999943
40
0.175
0
CIRCLE
8
BLACK
10
6.9099999999999993
20
-87.8499999999999943
40
0.175
0
CIRCLE
8
BLACK
10
9.4499999999999993
20
-85.3100000000000023
40
0.175
0
CIRCLE
8
BLACK
10
6.9099999999999993
20
-85.3100000000000023
40
0.175
0
CIRCLE
8
BLACK
10
9.4499999999999993
20
-82.769999999999996
40
0.175
0
CIRCLE
8
BLACK
10
6.9099999999999993
20
-82.769999999999996
40
0.175
0
CIRCLE
8
BLACK
10
9.4499999999999993
20
-80.2299999999999898
40
0.175
0
CIRCLE
8
BLACK
10
6.9099999999999993
20
-80.2299999999999898
40
0.175
0
CIRCLE
8
BLACK
10
9.4499999999999993
20
-77.6899999999999977
40
0.175
0
CIRCLE
8
BLACK
10
6.9099999999999993
20
-77.6899999999999977
40
0.175
0
CIRCLE
8
BLACK
10
9.4499999999999993
20
-75.1499999999999915
40
0.175
0
CIRCLE
8
BLACK
10
6.9099999999999993
20
-75.1499999999999915
40
0.175
0
CIRCLE
8
BLACK
10
9.4499999999999993
20
-72.6099999999999994
40
0.175
0
CIRCLE
8
BLACK
10
6.9099999999999993
20
-72.6099999999999994
40
0.175
0
CIRCLE
8
BLACK
10
9.4499999999999993
20
-70.0699999999999932
40
0.175
0
CIRCLE
8
BLACK
10
6.9099999999999993
20
-70.0699999999999932
40
0.175
0
CIRCLE
8
BLACK
10
9.4499999999999993
20
-67.5300000000000011
40
0.175
0
CIRCLE
8
BLACK
10
6.9099999999999993
20
-67.5300000000000011
40
0.175
0
CIRCLE
8
BLACK
10
9.4499999999999993
20
-64.9899999999999949
40
0.175
0
CIRCLE
8
BLACK
10
6.9099999999999993
20
-64.9899999999999949
40
0.175
0
CIRCLE
8
BLACK
10
9.4499999999999993
20
-62.4499999999999957
40
0.175
0
CIRCLE
8
BLACK
10
6.9099999999999993
20
-62.4499999999999957
40
0.175
0
CIRCLE
8
BLACK
10
9.4499999999999993
20
-59.9099999999999966
40
0.175
0
CIRCLE
8
BLACK
10
6.9099999999999993
20
-59.9099999999999966
40
0.175
0
CIRCLE
8
BLACK
10
9.4499999999999993
20
-57.3699999999999974
40
0.175
0
CIRCLE
8
BLACK
10
6.9099999999999993
20
-57.3699999999999974
40
0.175
0
CIRCLE
8
BLACK
10
9.4499999999999993
20
-54.8299999999999983
40
0.175
0
CIRCLE
8
BLACK
10
6.9099999999999993
20
-54.8299999999999983
40
0.175
0
CIRCLE
8
BLACK
10
38.6199999999999974
20
-112.3199999999999932
40
0.175
0
CIRCLE
8
BLACK
10
38.6199999999999974
20
-104.6999999999999886
40
0.175
0
CIRCLE
8
BLACK
10
74.1799999999999926
20
-125.019999999999996
40
0.175
0
CIRCLE
8
BLACK
10
81.7999999999999972
20
-125.019999999999996
40
0.175
0
CIRCLE
8
BLACK
10
68.3379999999999939
20
-66.5999999999999943
40
0.175
0
CIRCLE
8
BLACK
10
68.3379999999999939
20
-74.2199999999999989
40
0.175
0
CIRCLE
8
BLACK
10
53.732999999999997
20
-73.4579999999999984
40
0.175
0
CIRCLE
8
BLACK
10
61.3529999999999944
20
-73.4579999999999984
40
0.175
0
CIRCLE
8
BLACK
10
58.9399999999999977
20
-99.6199999999999903
40
0.175
0
CIRCLE
8
BLACK
10
58.9399999999999977
20
-92.
40
0.175
0
CIRCLE
8
BLACK
10
77.9099999999999966
20
-92.
40
0.175
0
CIRCLE
8
BLACK
10
67.9099999999999966
20
-92.
40
0.175
0
CIRCLE
8
BLACK
10
14.2867999999999995
20
-95.3198000000000008
40
0.175
0
CIRCLE
8
BLACK
10
14.2867999999999995
20
-85.3198000000000008
40
0.175
0
CIRCLE
8
BLACK
10
109.2319999999999993
20
-66.7015999999999991
40
0.175
0
CIRCLE
8
BLACK
10
109.2319999999999993
20
-74.3216000000000037
40
0.175
0
CIRCLE
8
BLACK
10
104.1773999999999916
20
-74.3216000000000037
40
0.175
0
CIRCLE
8
BLACK
10
104.1773999999999916
20
-66.7015999999999991
40
0.175
0
CIRCLE
8
BLACK
10
81.7999999999999972
20
-128.8299999999999841
40
0.175
0
CIRCLE
8
BLACK
10
74.1799999999999926
20
-128.8299999999999841
40
0.175
0
CIRCLE
8
BLACK
10
100.799199999999999
20
-83.3385999999999996
40
0.175
0
CIRCLE
8
BLACK
10
108.4191999999999894
20
-83.3385999999999996
40
0.175
0
CIRCLE
8
BLACK
10
113.5499999999999972
20
-11.9900000000000002
40
0.175
0
CIRCLE
8
BLACK
10
121.1699999999999875
20
-11.9900000000000002
40
0.175
0
CIRCLE
8
BLACK
10
14.9979999999999993
20
-19.1020000000000003
40
0.175
0
CIRCLE
8
BLACK
10
7.3779999999999992
20
-19.1020000000000003
40
0.175
0
CIRCLE
8
BLACK
10
73.4179999999999922
20
-66.5999999999999943
40
0.175
0
CIRCLE
8
BLACK
10
73.4179999999999922
20
-74.2199999999999989
40
0.175
0
CIRCLE
8
BLACK
10
58.9399999999999977
20
-114.8599999999999994
40
0.175
0
CIRCLE
8
BLACK
10
58.9399999999999977
20
-107.2399999999999949
40
0.175
0
CIRCLE
8
BLACK
10
14.2614000000000001
20
-75.5407999999999902
40
0.175
0
CIRCLE
8
BLACK
10
14.2614000000000001
20
-83.1607999999999947
40
0.175
0
CIRCLE
8
BLACK
10
77.9099999999999966
20
-107.2399999999999949
40
0.175
0
CIRCLE
8
BLACK
10
67.9099999999999966
20
-107.2399999999999949
40
0.175
0
CIRCLE
8
WHITE
10
13.4740000000000002
20
-125.4009999999999962
40
0.175
0
CIRCLE
8
WHITE
10
13.4740000000000002
20
-122.86099999999999
40
0.175
0
CIRCLE
8
WHITE
10
16.0139999999999993
20
-125.4009999999999962
40
0.175
0
CIRCLE
8
WHITE
10
16.0139999999999993
20
-122.86099999999999
40
0.175
0
CIRCLE
8
WHITE
10
18.5539999999999985
20
-125.4009999999999962
40
0.175
0
CIRCLE
8
WHITE
10
18.5539999999999985
20
-122.86099999999999
40
0.175
0
CIRCLE
8
WHITE
10
21.0939999999999976
20
-125.4009999999999962
40
0.175
0
CIRCLE
8
WHITE
10
21.0939999999999976
20
-122.86099999999999
40
0.175
0
CIRCLE
8
WHITE
10
23.6340000000000003
20
-125.4009999999999962
40
0.175
0
CIRCLE
8
WHITE
10
23.6340000000000003
20
-122.86099999999999
40
0.175
0
CIRCLE
8
WHITE
10
26.1739999999999995
20
-125.4009999999999962
40
0.175
0
CIRCLE
8
WHITE
10
26.1739999999999995
20
-122.86099999999999
40
0.175
0
CIRCLE
8
WHITE
10
28.7139999999999986
20
-125.4009999999999962
40
0.175
0
CIRCLE
8
WHITE
10
28.7139999999999986
20
-122.86099999999999
40
0.175
0
CIRCLE
8
WHITE
10
113.8039999999999878
20
-134.1639999999999873
40
0.175
0
CIRCLE
8
WHITE
10
118.8039999999999878
20
-134.1639999999999873
40
0.175
0
CIRCLE
8
WHITE
10
99.5799999999999983
20
-43.7399999999999949
40
0.175
0
CIRCLE
8
WHITE
10
119.8999999999999915
20
-15.7999999999999989
40
0.175
0
CIRCLE
8
WHITE
10
104.6599999999999966
20
-43.7399999999999949
40
0.175
0
CIRCLE
8
WHITE
10
114.8199999999999932
20
-15.7999999999999989
40
0.175
0
CIRCLE
8
WHITE
10
109.7399999999999949
20
-43.7399999999999949
40
0.175
0
CIRCLE
8
WHITE
10
114.8199999999999932
20
-43.7399999999999949
40
0.175
0
CIRCLE
8
WHITE
10
119.8999999999999915
20
-43.7399999999999949
40
0.175
0
CIRCLE
8
WHITE
10
112.2800000000000011
20
-43.7399999999999949
40
0.175
0
CIRCLE
8
WHITE
10
117.3599999999999994
20
-43.7399999999999949
40
0.175
0
CIRCLE
8
WHITE
10
117.3599999999999994
20
-15.7999999999999989
40
0.175
0
CIRCLE
8
WHITE
10
107.1999999999999886
20
-43.7399999999999949
40
0.175
0
CIRCLE
8
WHITE
10
102.1199999999999903
20
-43.7399999999999949
40
0.175
0
CIRCLE
8
WHITE
10
40.652000000000001
20
-134.1639999999999873
40
0.175
0
CIRCLE
8
WHITE
10
45.652000000000001
20
-134.1639999999999873
40
0.175
0
CIRCLE
8
WHITE
10
73.4179999999999922
20
-52.8840000000000003
40
0.175
0
CIRCLE
8
WHITE
10
78.4979999999999905
20
-52.8840000000000003
40
0.175
0
CIRCLE
8
WHITE
10
63.2579999999999956
20
-78.2839999999999918
40
0.175
0
CIRCLE
8
WHITE
10
68.3379999999999939
20
-78.2839999999999918
40
0.175
0
CIRCLE
8
WHITE
10
73.4179999999999922
20
-78.2839999999999918
40
0.175
0
CIRCLE
8
WHITE
10
78.4979999999999905
20
-78.2839999999999918
40
0.175
0
CIRCLE
8
WHITE
10
65.7980000000000018
20
-78.2839999999999918
40
0.175
0
CIRCLE
8
WHITE
10
75.9579999999999984
20
-78.2839999999999918
40
0.175
0
CIRCLE
8
WHITE
10
75.9579999999999984
20
-52.8840000000000003
40
0.175
0
CIRCLE
8
WHITE
10
101.652000000000001
20
-134.1599999999999966
40
0.175
0
CIRCLE
8
WHITE
10
106.652000000000001
20
-134.1599999999999966
40
0.175
0
CIRCLE
8
WHITE
10
14.9929999999999986
20
-22.907
40
0.175
0
CIRCLE
8
WHITE
10
14.9929999999999986
20
-25.4469999999999992
40
0.175
0
CIRCLE
8
WHITE
10
12.4529999999999994
20
-22.907
40
0.175
0
CIRCLE
8
WHITE
10
12.4529999999999994
20
-25.4469999999999992
40
0.175
0
CIRCLE
8
WHITE
10
9.9130000000000003
20
-22.907
40
0.175
0
CIRCLE
8
WHITE
10
9.9130000000000003
20
-25.4469999999999992
40
0.175
0
CIRCLE
8
WHITE
10
7.3729999999999993
20
-22.907
40
0.175
0
CIRCLE
8
WHITE
10
7.3729999999999993
20
-25.4469999999999992
40
0.175
0
CIRCLE
8
WHITE
10
4.8330000000000002
20
-22.907
40
0.175
0
CIRCLE
8
WHITE
10
4.8330000000000002
20
-25.4469999999999992
40
0.175
0
CIRCLE
8
WHITE
10
64.2740000000000009
20
-46.0899999999999963
40
0.175
0
CIRCLE
8
WHITE
10
66.813999999999993
20
-46.0899999999999963
40
0.175
0
CIRCLE
8
WHITE
10
69.3539999999999992
20
-46.0899999999999963
40
0.175
0
CIRCLE
8
WHITE
10
36.3999999999999986
20
-95.789999999999992
40
0.175
0
CIRCLE
8
WHITE
10
36.3999999999999986
20
-103.4099999999999966
40
0.175
0
CIRCLE
8
WHITE
10
61.3529999999999944
20
-122.86099999999999
40
0.175
0
CIRCLE
8
WHITE
10
61.3529999999999944
20
-125.4009999999999962
40
0.175
0
CIRCLE
8
WHITE
10
58.8129999999999953
20
-122.86099999999999
40
0.175
0
CIRCLE
8
WHITE
10
58.8129999999999953
20
-125.4009999999999962
40
0.175
0
CIRCLE
8
WHITE
10
56.2729999999999961
20
-122.86099999999999
40
0.175
0
CIRCLE
8
WHITE
10
56.2729999999999961
20
-125.4009999999999962
40
0.175
0
CIRCLE
8
WHITE
10
53.732999999999997
20
-122.86099999999999
40
0.175
0
CIRCLE
8
WHITE
10
53.732999999999997
20
-125.4009999999999962
40
0.175
0
CIRCLE
8
WHITE
10
51.1929999999999978
20
-122.86099999999999
40
0.175
0
CIRCLE
8
WHITE
10
51.1929999999999978
20
-125.4009999999999962
40
0.175
0
CIRCLE
8
WHITE
10
48.6529999999999987
20
-122.86099999999999
40
0.175
0
CIRCLE
8
WHITE
10
48.6529999999999987
20
-125.4009999999999962
40
0.175
0
CIRCLE
8
WHITE
10
46.1129999999999995
20
-122.86099999999999
40
0.175
0
CIRCLE
8
WHITE
10
46.1129999999999995
20
-125.4009999999999962
40
0.175
0
CIRCLE
8
WHITE
10
43.5730000000000004
20
-122.86099999999999
40
0.175
0
CIRCLE
8
WHITE
10
43.5730000000000004
20
-125.4009999999999962
40
0.175
0
CIRCLE
8
WHITE
10
52.5899999999999963
20
-114.8599999999999994
40
0.175
0
CIRCLE
8
WHITE
10
52.5899999999999963
20
-112.3599999999999994
40
0.175
0
CIRCLE
8
WHITE
10
50.0899999999999963
20
-112.3599999999999994
40
0.175
0
CIRCLE
8
WHITE
10
52.5899999999999963
20
-109.8599999999999994
40
0.175
0
CIRCLE
8
WHITE
10
13.7279999999999998
20
-12.7519999999999989
40
0.175
0
CIRCLE
8
WHITE
10
8.7279999999999998
20
-12.7519999999999989
40
0.175
0
CIRCLE
8
WHITE
10
119.8999999999999915
20
-90.7299999999999898
40
0.175
0
CIRCLE
8
WHITE
10
117.3599999999999994
20
-90.7299999999999898
40
0.175
0
CIRCLE
8
WHITE
10
114.8199999999999932
20
-90.7299999999999898
40
0.175
0
CIRCLE
8
WHITE
10
112.2800000000000011
20
-123.75
40
0.175
0
CIRCLE
8
WHITE
10
117.3599999999999994
20
-123.75
40
0.175
0
CIRCLE
8
WHITE
10
122.4399999999999977
20
-123.75
40
0.175
0
CIRCLE
8
WHITE
10
114.8199999999999932
20
-123.75
40
0.175
0
CIRCLE
8
WHITE
10
119.8999999999999915
20
-123.75
40
0.175
0
CIRCLE
8
WHITE
10
22.
20
-132.6999999999999886
40
0.175
0
CIRCLE
8
WHITE
10
19.5
20
-132.6999999999999886
40
0.175
0
CIRCLE
8
WHITE
10
17.
20
-132.6999999999999886
40
0.175
0
CIRCLE
8
WHITE
10
14.5
20
-132.6999999999999886
40
0.175
0
CIRCLE
8
WHITE
10
28.4599999999999973
20
-134.1639999999999873
40
0.175
0
CIRCLE
8
WHITE
10
33.4600000000000009
20
-134.1639999999999873
40
0.175
0
CIRCLE
8
WHITE
10
52.8439999999999941
20
-134.1599999999999966
40
0.175
0
CIRCLE
8
WHITE
10
57.8439999999999941
20
-134.1599999999999966
40
0.175
0
CIRCLE
8
WHITE
10
65.0759999999999934
20
-134.1560000000000059
40
0.175
0
CIRCLE
8
WHITE
10
70.0759999999999934
20
-134.1560000000000059
40
0.175
0
CIRCLE
8
WHITE
10
77.2680000000000007
20
-134.1599999999999966
40
0.175
0
CIRCLE
8
WHITE
10
82.2680000000000007
20
-134.1599999999999966
40
0.175
0
CIRCLE
8
WHITE
10
78.4979999999999905
20
-36.3739999999999952
40
0.175
0
CIRCLE
8
WHITE
10
63.2579999999999956
20
-36.3739999999999952
40
0.175
0
CIRCLE
8
WHITE
10
29.7699999999999996
20
-43.4899999999999949
40
0.175
0
CIRCLE
8
WHITE
10
29.7699999999999996
20
-46.0300000000000011
40
0.175
0
CIRCLE
8
WHITE
10
32.3099999999999952
20
-43.4899999999999949
40
0.175
0
CIRCLE
8
WHITE
10
32.3099999999999952
20
-46.0300000000000011
40
0.175
0
CIRCLE
8
WHITE
10
34.8500000000000014
20
-43.4899999999999949
40
0.175
0
CIRCLE
8
WHITE
10
34.8500000000000014
20
-46.0300000000000011
40
0.175
0
CIRCLE
8
WHITE
10
37.3900000000000006
20
-43.4899999999999949
40
0.175
0
CIRCLE
8
WHITE
10
37.3900000000000006
20
-46.0300000000000011
40
0.175
0
CIRCLE
8
WHITE
10
39.9299999999999997
20
-43.4899999999999949
40
0.175
0
CIRCLE
8
WHITE
10
39.9299999999999997
20
-46.0300000000000011
40
0.175
0
CIRCLE
8
WHITE
10
42.4699999999999989
20
-43.4899999999999949
40
0.175
0
CIRCLE
8
WHITE
10
42.4699999999999989
20
-46.0300000000000011
40
0.175
0
CIRCLE
8
WHITE
10
109.2319999999999993
20
-52.8840000000000003
40
0.175
0
CIRCLE
8
WHITE
10
114.3119999999999976
20
-52.8840000000000003
40
0.175
0
CIRCLE
8
WHITE
10
99.0719999999999885
20
-78.2839999999999918
40
0.175
0
CIRCLE
8
WHITE
10
104.152000000000001
20
-78.2839999999999918
40
0.175
0
CIRCLE
8
WHITE
10
109.2319999999999993
20
-78.2839999999999918
40
0.175
0
CIRCLE
8
WHITE
10
114.3119999999999976
20
-78.2839999999999918
40
0.175
0
CIRCLE
8
WHITE
10
101.6119999999999948
20
-78.2839999999999918
40
0.175
0
CIRCLE
8
WHITE
10
111.7719999999999914
20
-78.2839999999999918
40
0.175
0
CIRCLE
8
WHITE
10
111.7719999999999914
20
-52.8840000000000003
40
0.175
0
CIRCLE
8
WHITE
10
9.4100000000000001
20
-127.6199999999999903
40
0.175
0
CIRCLE
8
WHITE
10
6.8700000000000001
20
-127.6199999999999903
40
0.175
0
CIRCLE
8
WHITE
10
9.4100000000000001
20
-125.0799999999999983
40
0.175
0
CIRCLE
8
WHITE
10
6.8700000000000001
20
-125.0799999999999983
40
0.175
0
CIRCLE
8
WHITE
10
9.4100000000000001
20
-122.539999999999992
40
0.175
0
CIRCLE
8
WHITE
10
6.8700000000000001
20
-122.539999999999992
40
0.175
0
CIRCLE
8
WHITE
10
9.4100000000000001
20
-120.
40
0.175
0
CIRCLE
8
WHITE
10
6.8700000000000001
20
-120.
40
0.175
0
CIRCLE
8
WHITE
10
9.4100000000000001
20
-117.4599999999999937
40
0.175
0
CIRCLE
8
WHITE
10
6.8700000000000001
20
-117.4599999999999937
40
0.175
0
CIRCLE
8
WHITE
10
89.5
20
-134.1639999999999873
40
0.175
0
CIRCLE
8
WHITE
10
94.5
20
-134.1639999999999873
40
0.175
0
CIRCLE
8
WHITE
10
52.6515999999999948
20
-96.7098000000000013
40
0.175
0
CIRCLE
8
WHITE
10
52.6515999999999948
20
-94.2098000000000013
40
0.175
0
CIRCLE
8
WHITE
10
50.1515999999999948
20
-94.2098000000000013
40
0.175
0
CIRCLE
8
WHITE
10
52.6515999999999948
20
-91.7098000000000013
40
0.175
0
CIRCLE
8
WHITE
10
9.4499999999999993
20
-43.4899999999999949
40
0.175
0
CIRCLE
8
WHITE
10
9.4499999999999993
20
-46.0300000000000011
40
0.175
0
CIRCLE
8
WHITE
10
11.9900000000000002
20
-43.4899999999999949
40
0.175
0
CIRCLE
8
WHITE
10
11.9900000000000002
20
-46.0300000000000011
40
0.175
0
CIRCLE
8
WHITE
10
14.5299999999999994
20
-43.4899999999999949
40
0.175
0
CIRCLE
8
WHITE
10
14.5299999999999994
20
-46.0300000000000011
40
0.175
0
CIRCLE
8
WHITE
10
17.0700000000000003
20
-43.4899999999999949
40
0.175
0
CIRCLE
8
WHITE
10
17.0700000000000003
20
-46.0300000000000011
40
0.175
0
CIRCLE
8
WHITE
10
19.6099999999999994
20
-43.4899999999999949
40
0.175
0
CIRCLE
8
WHITE
10
19.6099999999999994
20
-46.0300000000000011
40
0.175
0
CIRCLE
8
WHITE
10
22.1499999999999986
20
-43.4899999999999949
40
0.175
0
CIRCLE
8
WHITE
10
22.1499999999999986
20
-46.0300000000000011
40
0.175
0
CIRCLE
8
WHITE
10
119.8999999999999915
20
-5.6440000000000001
40
0.175
0
CIRCLE
8
WHITE
10
114.8999999999999915
20
-5.6440000000000001
40
0.175
0
CIRCLE
8
WHITE
10
28.5799999999999983
20
-108.1999999999999886
40
0.175
0
CIRCLE
8
WHITE
10
36.1999999999999957
20
-108.1999999999999886
40
0.175
0
CIRCLE
8
WHITE
10
103.3900000000000006
20
-99.6199999999999903
40
0.175
0
CIRCLE
8
WHITE
10
103.3900000000000006
20
-97.0799999999999983
40
0.175
0
CIRCLE
8
WHITE
10
103.3900000000000006
20
-94.539999999999992
40
0.175
0
CIRCLE
8
WHITE
10
103.3900000000000006
20
-92.
40
0.175
0
CIRCLE
8
WHITE
10
62.75
20
-89.4599999999999937
40
0.175
0
CIRCLE
8
WHITE
10
62.75
20
-94.539999999999992
40
0.175
0
CIRCLE
8
WHITE
10
62.75
20
-99.6199999999999903
40
0.175
0
CIRCLE
8
WHITE
10
62.75
20
-104.6999999999999886
40
0.175
0
CIRCLE
8
WHITE
10
62.75
20
-109.7800000000000011
40
0.175
0
CIRCLE
8
WHITE
10
62.75
20
-114.8599999999999994
40
0.175
0
CIRCLE
8
WHITE
10
62.75
20
-92.
40
0.175
0
CIRCLE
8
WHITE
10
62.75
20
-97.0799999999999983
40
0.175
0
CIRCLE
8
WHITE
10
62.75
20
-102.1599999999999966
40
0.175
0
CIRCLE
8
WHITE
10
62.75
20
-107.2399999999999949
40
0.175
0
CIRCLE
8
WHITE
10
62.75
20
-112.3199999999999932
40
0.175
0
CIRCLE
8
WHITE
10
19.5845999999999982
20
-10.5969999999999995
40
0.175
0
CIRCLE
8
WHITE
10
19.5845999999999982
20
-28.3769999999999989
40
0.175
0
CIRCLE
8
WHITE
10
60.2245999999999952
20
-28.3769999999999989
40
0.175
0
CIRCLE
8
WHITE
10
60.2245999999999952
20
-10.5969999999999995
40
0.175
0
CIRCLE
8
WHITE
10
19.5845999999999982
20
-25.8369999999999997
40
0.175
0
CIRCLE
8
WHITE
10
19.5845999999999982
20
-23.2970000000000006
40
0.175
0
CIRCLE
8
WHITE
10
19.5845999999999982
20
-20.7569999999999979
40
0.175
0
CIRCLE
8
WHITE
10
19.5845999999999982
20
-18.2169999999999987
40
0.175
0
CIRCLE
8
WHITE
10
19.5845999999999982
20
-15.6769999999999996
40
0.175
0
CIRCLE
8
WHITE
10
19.5845999999999982
20
-13.1369999999999987
40
0.175
0
CIRCLE
8
WHITE
10
60.2245999999999952
20
-25.8369999999999997
40
0.175
0
CIRCLE
8
WHITE
10
60.2245999999999952
20
-23.2970000000000006
40
0.175
0
CIRCLE
8
WHITE
10
60.2245999999999952
20
-20.7569999999999979
40
0.175
0
CIRCLE
8
WHITE
10
60.2245999999999952
20
-18.2169999999999987
40
0.175
0
CIRCLE
8
WHITE
10
60.2245999999999952
20
-15.6769999999999996
40
0.175
0
CIRCLE
8
WHITE
10
60.2245999999999952
20
-13.1369999999999987
40
0.175
0
CIRCLE
8
WHITE
10
104.6599999999999966
20
-5.6440000000000001
40
0.175
0
CIRCLE
8
WHITE
10
99.6599999999999966
20
-5.6440000000000001
40
0.175
0
CIRCLE
8
WHITE
10
45.009999999999998
20
-108.1700000000000017
40
0.175
0
CIRCLE
8
WHITE
10
42.4699999999999989
20
-108.1700000000000017
40
0.175
0
CIRCLE
8
WHITE
10
45.009999999999998
20
-105.6299999999999955
40
0.175
0
CIRCLE
8
WHITE
10
42.4699999999999989
20
-105.6299999999999955
40
0.175
0
CIRCLE
8
WHITE
10
45.009999999999998
20
-103.0899999999999892
40
0.175
0
CIRCLE
8
WHITE
10
42.4699999999999989
20
-103.0899999999999892
40
0.175
0
CIRCLE
8
WHITE
10
45.009999999999998
20
-100.5499999999999972
40
0.175
0
CIRCLE
8
WHITE
10
42.4699999999999989
20
-100.5499999999999972
40
0.175
0
CIRCLE
8
WHITE
10
45.009999999999998
20
-98.0099999999999909
40
0.175
0
CIRCLE
8
WHITE
10
42.4699999999999989
20
-98.0099999999999909
40
0.175
0
CIRCLE
8
WHITE
10
45.009999999999998
20
-95.4699999999999989
40
0.175
0
CIRCLE
8
WHITE
10
42.4699999999999989
20
-95.4699999999999989
40
0.175
0
CIRCLE
8
WHITE
10
45.009999999999998
20
-92.9299999999999926
40
0.175
0
CIRCLE
8
WHITE
10
42.4699999999999989
20
-92.9299999999999926
40
0.175
0
CIRCLE
8
WHITE
10
45.009999999999998
20
-90.3900000000000006
40
0.175
0
CIRCLE
8
WHITE
10
42.4699999999999989
20
-90.3900000000000006
40
0.175
0
CIRCLE
8
WHITE
10
45.009999999999998
20
-87.8499999999999943
40
0.175
0
CIRCLE
8
WHITE
10
42.4699999999999989
20
-87.8499999999999943
40
0.175
0
CIRCLE
8
WHITE
10
45.009999999999998
20
-85.3100000000000023
40
0.175
0
CIRCLE
8
WHITE
10
42.4699999999999989
20
-85.3100000000000023
40
0.175
0
CIRCLE
8
WHITE
10
45.009999999999998
20
-82.769999999999996
40
0.175
0
CIRCLE
8
WHITE
10
42.4699999999999989
20
-82.769999999999996
40
0.175
0
CIRCLE
8
WHITE
10
45.009999999999998
20
-80.2299999999999898
40
0.175
0
CIRCLE
8
WHITE
10
42.4699999999999989
20
-80.2299999999999898
40
0.175
0
CIRCLE
8
WHITE
10
45.009999999999998
20
-77.6899999999999977
40
0.175
0
CIRCLE
8
WHITE
10
42.4699999999999989
20
-77.6899999999999977
40
0.175
0
CIRCLE
8
WHITE
10
45.009999999999998
20
-75.1499999999999915
40
0.175
0
CIRCLE
8
WHITE
10
42.4699999999999989
20
-75.1499999999999915
40
0.175
0
CIRCLE
8
WHITE
10
45.009999999999998
20
-72.6099999999999994
40
0.175
0
CIRCLE
8
WHITE
10
42.4699999999999989
20
-72.6099999999999994
40
0.175
0
CIRCLE
8
WHITE
10
45.009999999999998
20
-70.0699999999999932
40
0.175
0
CIRCLE
8
WHITE
10
42.4699999999999989
20
-70.0699999999999932
40
0.175
0
CIRCLE
8
WHITE
10
45.009999999999998
20
-67.5300000000000011
40
0.175
0
CIRCLE
8
WHITE
10
42.4699999999999989
20
-67.5300000000000011
40
0.175
0
CIRCLE
8
WHITE
10
45.009999999999998
20
-64.9899999999999949
40
0.175
0
CIRCLE
8
WHITE
10
42.4699999999999989
20
-64.9899999999999949
40
0.175
0
CIRCLE
8
WHITE
10
45.009999999999998
20
-62.4499999999999957
40
0.175
0
CIRCLE
8
WHITE
10
42.4699999999999989
20
-62.4499999999999957
40
0.175
0
CIRCLE
8
WHITE
10
45.009999999999998
20
-59.9099999999999966
40
0.175
0
CIRCLE
8
WHITE
10
42.4699999999999989
20
-59.9099999999999966
40
0.175
0
CIRCLE
8
WHITE
10
45.009999999999998
20
-57.3699999999999974
40
0.175
0
CIRCLE
8
WHITE
10
42.4699999999999989
20
-57.3699999999999974
40
0.175
0
CIRCLE
8
WHITE
10
45.009999999999998
20
-54.8299999999999983
40
0.175
0
CIRCLE
8
WHITE
10
42.4699999999999989
20
-54.8299999999999983
40
0.175
0
CIRCLE
8
WHITE
10
38.6199999999999974
20
-101.8551999999999964
40
0.175
0
CIRCLE
8
WHITE
10
38.6199999999999974
20
-94.2351999999999919
40
0.175
0
CIRCLE
8
WHITE
10
53.7075999999999993
20
-68.8859999999999957
40
0.175
0
CIRCLE
8
WHITE
10
61.3275999999999968
20
-68.8859999999999957
40
0.175
0
CIRCLE
8
WHITE
10
9.4499999999999993
20
-108.1700000000000017
40
0.175
0
CIRCLE
8
WHITE
10
6.9099999999999993
20
-108.1700000000000017
40
0.175
0
CIRCLE
8
WHITE
10
9.4499999999999993
20
-105.6299999999999955
40
0.175
0
CIRCLE
8
WHITE
10
6.9099999999999993
20
-105.6299999999999955
40
0.175
0
CIRCLE
8
WHITE
10
9.4499999999999993
20
-103.0899999999999892
40
0.175
0
CIRCLE
8
WHITE
10
6.9099999999999993
20
-103.0899999999999892
40
0.175
0
CIRCLE
8
WHITE
10
9.4499999999999993
20
-100.5499999999999972
40
0.175
0
CIRCLE
8
WHITE
10
6.9099999999999993
20
-100.5499999999999972
40
0.175
0
CIRCLE
8
WHITE
10
9.4499999999999993
20
-98.0099999999999909
40
0.175
0
CIRCLE
8
WHITE
10
6.9099999999999993
20
-98.0099999999999909
40
0.175
0
CIRCLE
8
WHITE
10
9.4499999999999993
20
-95.4699999999999989
40
0.175
0
CIRCLE
8
WHITE
10
6.9099999999999993
20
-95.4699999999999989
40
0.175
0
CIRCLE
8
WHITE
10
9.4499999999999993
20
-92.9299999999999926
40
0.175
0
CIRCLE
8
WHITE
10
6.9099999999999993
20
-92.9299999999999926
40
0.175
0
CIRCLE
8
WHITE
10
9.4499999999999993
20
-90.3900000000000006
40
0.175
0
CIRCLE
8
WHITE
10
6.9099999999999993
20
-90.3900000000000006
40
0.175
0
CIRCLE
8
WHITE
10
9.4499999999999993
20
-87.8499999999999943
40
0.175
0
CIRCLE
8
WHITE
10
6.9099999999999993
20
-87.8499999999999943
40
0.175
0
CIRCLE
8
WHITE
10
9.4499999999999993
20
-85.3100000000000023
40
0.175
0
CIRCLE
8
WHITE
10
6.9099999999999993
20
-85.3100000000000023
40
0.175
0
CIRCLE
8
WHITE
10
9.4499999999999993
20
-82.769999999999996
40
0.175
0
CIRCLE
8
WHITE
10
6.9099999999999993
20
-82.769999999999996
40
0.175
0
CIRCLE
8
WHITE
10
9.4499999999999993
20
-80.2299999999999898
40
0.175
0
CIRCLE
8
WHITE
10
6.9099999999999993
20
-80.2299999999999898
40
0.175
0
CIRCLE
8
WHITE
10
9.4499999999999993
20
-77.6899999999999977
40
0.175
0
CIRCLE
8
WHITE
10
6.9099999999999993
20
-77.6899999999999977
40
0.175
0
CIRCLE
8
WHITE
10
9.4499999999999993
20
-75.1499999999999915
40
0.175
0
CIRCLE
8
WHITE
10
6.9099999999999993
20
-75.1499999999999915
40
0.175
0
CIRCLE
8
WHITE
10
9.4499999999999993
20
-72.6099999999999994
40
0.175
0
CIRCLE
8
WHITE
10
6.9099999999999993
20
-72.6099999999999994
40
0.175
0
CIRCLE
8
WHITE
10
9.4499999999999993
20
-70.0699999999999932
40
0.175
0
CIRCLE
8
WHITE
10
6.9099999999999993
20
-70.0699999999999932
40
0.175
0
CIRCLE
8
WHITE
10
9.4499999999999993
20
-67.5300000000000011
40
0.175
0
CIRCLE
8
WHITE
10
6.9099999999999993
20
-67.5300000000000011
40
0.175
0
CIRCLE
8
WHITE
10
9.4499999999999993
20
-64.9899999999999949
40
0.175
0
CIRCLE
8
WHITE
10
6.9099999999999993
20
-64.9899999999999949
40
0.175
0
CIRCLE
8
WHITE
10
9.4499999999999993
20
-62.4499999999999957
40
0.175
0
CIRCLE
8
WHITE
10
6.9099999999999993
20
-62.4499999999999957
40
0.175
0
CIRCLE
8
WHITE
10
9.4499999999999993
20
-59.9099999999999966
40
0.175
0
CIRCLE
8
WHITE
10
6.9099999999999993
20
-59.9099999999999966
40
0.175
0
CIRCLE
8
WHITE
10
9.4499999999999993
20
-57.3699999999999974
40
0.175
0
CIRCLE
8
WHITE
10
6.9099999999999993
20
-57.3699999999999974
40
0.175
0
CIRCLE
8
WHITE
10
9.4499999999999993
20
-54.8299999999999983
40
0.175
0
CIRCLE
8
WHITE
10
6.9099999999999993
20
-54.8299999999999983
40
0.175
0
CIRCLE
8
WHITE
10
38.6199999999999974
20
-112.3199999999999932
40
0.175
0
CIRCLE
8
WHITE
10
38.6199999999999974
20
-104.6999999999999886
40
0.175
0
CIRCLE
8
WHITE
10
74.1799999999999926
20
-125.019999999999996
40
0.175
0
CIRCLE
8
WHITE
10
81.7999999999999972
20
-125.019999999999996
40
0.175
0
CIRCLE
8
WHITE
10
68.3379999999999939
20
-66.5999999999999943
40
0.175
0
CIRCLE
8
WHITE
10
68.3379999999999939
20
-74.2199999999999989
40
0.175
0
CIRCLE
8
WHITE
10
53.732999999999997
20
-73.4579999999999984
40
0.175
0
CIRCLE
8
WHITE
10
61.3529999999999944
20
-73.4579999999999984
40
0.175
0
CIRCLE
8
WHITE
10
58.9399999999999977
20
-99.6199999999999903
40
0.175
0
CIRCLE
8
WHITE
10
58.9399999999999977
20
-92.
40
0.175
0
CIRCLE
8
WHITE
10
77.9099999999999966
20
-92.
40
0.175
0
CIRCLE
8
WHITE
10
67.9099999999999966
20
-92.
40
0.175
0
CIRCLE
8
WHITE
10
14.2867999999999995
20
-95.3198000000000008
40
0.175
0
CIRCLE
8
WHITE
10
14.2867999999999995
20
-85.3198000000000008
40
0.175
0
CIRCLE
8
WHITE
10
109.2319999999999993
20
-66.7015999999999991
40
0.175
0
CIRCLE
8
WHITE
10
109.2319999999999993
20
-74.3216000000000037
40
0.175
0
CIRCLE
8
WHITE
10
104.1773999999999916
20
-74.3216000000000037
40
0.175
0
CIRCLE
8
WHITE
10
104.1773999999999916
20
-66.7015999999999991
40
0.175
0
CIRCLE
8
WHITE
10
81.7999999999999972
20
-128.8299999999999841
40
0.175
0
CIRCLE
8
WHITE
10
74.1799999999999926
20
-128.8299999999999841
40
0.175
0
CIRCLE
8
WHITE
10
100.799199999999999
20
-83.3385999999999996
40
0.175
0
CIRCLE
8
WHITE
10
108.4191999999999894
20
-83.3385999999999996
40
0.175
0
CIRCLE
8
WHITE
10
113.5499999999999972
20
-11.9900000000000002
40
0.175
0
CIRCLE
8
WHITE
10
121.1699999999999875
20
-11.9900000000000002
40
0.175
0
CIRCLE
8
WHITE
10
14.9979999999999993
20
-19.1020000000000003
40
0.175
0
CIRCLE
8
WHITE
10
7.3779999999999992
20
-19.1020000000000003
40
0.175
0
CIRCLE
8
WHITE
10
73.4179999999999922
20
-66.5999999999999943
40
0.175
0
CIRCLE
8
WHITE
10
73.4179999999999922
20
-74.2199999999999989
40
0.175
0
CIRCLE
8
WHITE
10
58.9399999999999977
20
-114.8599999999999994
40
0.175
0
CIRCLE
8
WHITE
10
58.9399999999999977
20
-107.2399999999999949
40
0.175
0
CIRCLE
8
WHITE
10
14.2614000000000001
20
-75.5407999999999902
40
0.175
0
CIRCLE
8
WHITE
10
14.2614000000000001
20
-83.1607999999999947
40
0.175
0
CIRCLE
8
WHITE
10
77.9099999999999966
20
-107.2399999999999949
40
0.175
0
CIRCLE
8
WHITE
10
67.9099999999999966
20
-107.2399999999999949
40
0.175
  0
ENDSEC
  0
EOF
