M48
; DRILL file {KiCad 9.0.0} date 2025-07-18T16:09:38+0300
; FORMAT={-:-/ absolute / metric / decimal}
; #@! TF.CreationDate,2025-07-18T16:09:38+03:00
; #@! TF.GenerationSoftware,Kicad,Pcbnew,9.0.0
; #@! TF.FileFunction,Plated,1,2,PTH
FMAT,2
METRIC
; #@! TA.AperFunction,Plated,PTH,ViaDrill
T1C0.400
; #@! TA.AperFunction,Plated,PTH,ComponentDrill
T2C0.800
; #@! TA.AperFunction,Plated,PTH,ComponentDrill
T3C0.900
; #@! TA.AperFunction,Plated,PTH,ComponentDrill
T4C0.950
; #@! TA.AperFunction,Plated,PTH,ComponentDrill
T5C1.000
; #@! TA.AperFunction,Plated,PTH,ComponentDrill
T6C1.400
%
G90
G05
T1
X3.75Y-55.0
X3.75Y-60.0
X3.75Y-65.0
X3.75Y-70.0
X3.75Y-75.0
X3.75Y-80.0
X3.75Y-85.0
X3.75Y-90.0
X3.75Y-95.0
X3.75Y-100.0
X3.75Y-107.5
X3.75Y-112.5
X3.75Y-117.5
X3.75Y-122.5
X4.25Y-127.5
X4.5Y-47.0
X7.5Y-10.0
X7.5Y-30.0
X7.5Y-39.0
X7.5Y-131.0
X7.5Y-134.0
X12.5Y-131.0
X12.5Y-134.0
X15.0Y-60.0
X15.0Y-70.0
X17.5Y-10.0
X17.5Y-20.0
X17.5Y-30.0
X17.5Y-39.0
X17.5Y-80.0
X17.5Y-90.0
X17.5Y-100.0
X17.5Y-110.0
X17.5Y-130.0
X25.0Y-127.75
X25.0Y-130.25
X27.5Y-10.0
X27.5Y-20.0
X27.5Y-30.0
X27.5Y-39.0
X27.5Y-60.0
X27.5Y-80.0
X27.5Y-90.0
X27.5Y-100.0
X27.5Y-110.0
X30.05Y-127.75
X30.05Y-130.25
X33.25Y-127.75
X33.25Y-130.25
X37.5Y-10.0
X37.5Y-20.0
X37.5Y-30.0
X37.5Y-40.0
X37.5Y-72.5
X37.5Y-80.0
X37.5Y-110.0
X37.5Y-127.75
X37.5Y-130.25
X47.5Y-10.0
X47.5Y-20.0
X47.5Y-30.0
X47.5Y-40.0
X47.5Y-72.5
X47.5Y-100.0
X47.5Y-128.25
X47.5Y-130.3
X50.0Y-110.0
X52.5Y-61.0
X52.5Y-80.0
X52.5Y-128.25
X52.5Y-130.3
X56.55Y-128.25
X56.55Y-130.3
X57.5Y-10.0
X57.5Y-20.0
X57.5Y-30.0
X57.5Y-40.0
X57.5Y-50.0
X67.5Y-10.0
X67.5Y-20.0
X67.5Y-30.0
X67.5Y-40.0
X67.5Y-61.0
X67.5Y-70.0
X67.5Y-80.0
X67.5Y-90.0
X67.5Y-100.0
X67.5Y-110.0
X67.5Y-130.0
X76.5Y-40.0
X76.5Y-50.0
X77.5Y-10.0
X77.5Y-20.0
X77.5Y-30.0
X77.5Y-61.0
X77.5Y-70.0
X77.5Y-80.0
X77.5Y-90.0
X77.5Y-100.0
X77.5Y-110.0
X77.5Y-120.0
X87.5Y-10.0
X87.5Y-20.0
X87.5Y-30.0
X87.5Y-40.0
X87.5Y-50.0
X87.5Y-61.0
X87.5Y-70.0
X87.5Y-80.0
X87.5Y-90.0
X87.5Y-110.0
X87.5Y-120.0
X87.5Y-130.0
X97.5Y-10.0
X97.5Y-20.0
X97.5Y-30.0
X97.5Y-40.0
X97.5Y-50.0
X97.5Y-61.0
X97.5Y-70.0
X97.5Y-80.0
X97.5Y-100.0
X97.5Y-110.0
X97.5Y-120.0
X97.5Y-130.0
X103.974Y-11.99
X107.5Y-10.0
X107.5Y-20.0
X107.5Y-30.0
X107.5Y-40.0
X107.5Y-50.0
X107.5Y-70.0
X107.5Y-90.0
X107.5Y-100.0
X107.5Y-110.0
X107.5Y-130.0
X117.5Y-130.0
X118.5Y-10.0
X118.5Y-20.0
X118.5Y-30.0
X118.5Y-40.0
X118.5Y-50.0
X118.5Y-61.0
X118.5Y-70.0
X118.5Y-80.0
X118.5Y-100.0
X118.5Y-110.0
T2
X14.261Y-75.541
X14.261Y-83.161
X14.287Y-85.32
X14.287Y-95.32
X36.4Y-95.79
X36.4Y-103.41
X38.62Y-94.235
X38.62Y-101.855
X38.62Y-104.7
X38.62Y-112.32
X53.708Y-68.886
X53.733Y-73.458
X58.94Y-92.0
X58.94Y-99.62
X58.94Y-107.24
X58.94Y-114.86
X61.328Y-68.886
X61.353Y-73.458
X67.91Y-92.0
X67.91Y-107.24
X68.338Y-66.6
X68.338Y-74.22
X73.418Y-66.6
X73.418Y-74.22
X74.18Y-125.02
X74.18Y-128.83
X77.91Y-92.0
X77.91Y-107.24
X81.8Y-125.02
X81.8Y-128.83
X100.799Y-83.339
X104.177Y-66.702
X104.177Y-74.322
X108.419Y-83.339
X109.232Y-66.702
X109.232Y-74.322
T3
X7.378Y-19.102
X14.998Y-19.102
X28.58Y-108.2
X36.2Y-108.2
X113.55Y-11.99
X121.17Y-11.99
T4
X14.5Y-132.7
X17.0Y-132.7
X19.5Y-132.7
X22.0Y-132.7
T5
X4.833Y-22.907
X4.833Y-25.447
X6.87Y-117.46
X6.87Y-120.0
X6.87Y-122.54
X6.87Y-125.08
X6.87Y-127.62
X6.91Y-54.83
X6.91Y-57.37
X6.91Y-59.91
X6.91Y-62.45
X6.91Y-64.99
X6.91Y-67.53
X6.91Y-70.07
X6.91Y-72.61
X6.91Y-75.15
X6.91Y-77.69
X6.91Y-80.23
X6.91Y-82.77
X6.91Y-85.31
X6.91Y-87.85
X6.91Y-90.39
X6.91Y-92.93
X6.91Y-95.47
X6.91Y-98.01
X6.91Y-100.55
X6.91Y-103.09
X6.91Y-105.63
X6.91Y-108.17
X7.373Y-22.907
X7.373Y-25.447
X9.41Y-117.46
X9.41Y-120.0
X9.41Y-122.54
X9.41Y-125.08
X9.41Y-127.62
X9.45Y-43.49
X9.45Y-46.03
X9.45Y-54.83
X9.45Y-57.37
X9.45Y-59.91
X9.45Y-62.45
X9.45Y-64.99
X9.45Y-67.53
X9.45Y-70.07
X9.45Y-72.61
X9.45Y-75.15
X9.45Y-77.69
X9.45Y-80.23
X9.45Y-82.77
X9.45Y-85.31
X9.45Y-87.85
X9.45Y-90.39
X9.45Y-92.93
X9.45Y-95.47
X9.45Y-98.01
X9.45Y-100.55
X9.45Y-103.09
X9.45Y-105.63
X9.45Y-108.17
X9.913Y-22.907
X9.913Y-25.447
X11.99Y-43.49
X11.99Y-46.03
X12.453Y-22.907
X12.453Y-25.447
X13.474Y-122.861
X13.474Y-125.401
X14.53Y-43.49
X14.53Y-46.03
X14.993Y-22.907
X14.993Y-25.447
X16.014Y-122.861
X16.014Y-125.401
X17.07Y-43.49
X17.07Y-46.03
X18.554Y-122.861
X18.554Y-125.401
X19.585Y-10.597
X19.585Y-13.137
X19.585Y-15.677
X19.585Y-18.217
X19.585Y-20.757
X19.585Y-23.297
X19.585Y-25.837
X19.585Y-28.377
X19.61Y-43.49
X19.61Y-46.03
X21.094Y-122.861
X21.094Y-125.401
X22.15Y-43.49
X22.15Y-46.03
X23.634Y-122.861
X23.634Y-125.401
X26.174Y-122.861
X26.174Y-125.401
X28.714Y-122.861
X28.714Y-125.401
X29.77Y-43.49
X29.77Y-46.03
X32.31Y-43.49
X32.31Y-46.03
X34.85Y-43.49
X34.85Y-46.03
X37.39Y-43.49
X37.39Y-46.03
X39.93Y-43.49
X39.93Y-46.03
X42.47Y-43.49
X42.47Y-46.03
X42.47Y-54.83
X42.47Y-57.37
X42.47Y-59.91
X42.47Y-62.45
X42.47Y-64.99
X42.47Y-67.53
X42.47Y-70.07
X42.47Y-72.61
X42.47Y-75.15
X42.47Y-77.69
X42.47Y-80.23
X42.47Y-82.77
X42.47Y-85.31
X42.47Y-87.85
X42.47Y-90.39
X42.47Y-92.93
X42.47Y-95.47
X42.47Y-98.01
X42.47Y-100.55
X42.47Y-103.09
X42.47Y-105.63
X42.47Y-108.17
X43.573Y-122.861
X43.573Y-125.401
X45.01Y-54.83
X45.01Y-57.37
X45.01Y-59.91
X45.01Y-62.45
X45.01Y-64.99
X45.01Y-67.53
X45.01Y-70.07
X45.01Y-72.61
X45.01Y-75.15
X45.01Y-77.69
X45.01Y-80.23
X45.01Y-82.77
X45.01Y-85.31
X45.01Y-87.85
X45.01Y-90.39
X45.01Y-92.93
X45.01Y-95.47
X45.01Y-98.01
X45.01Y-100.55
X45.01Y-103.09
X45.01Y-105.63
X45.01Y-108.17
X46.113Y-122.861
X46.113Y-125.401
X48.653Y-122.861
X48.653Y-125.401
X50.09Y-112.36
X50.152Y-94.21
X51.193Y-122.861
X51.193Y-125.401
X52.59Y-109.86
X52.59Y-112.36
X52.59Y-114.86
X52.652Y-91.71
X52.652Y-94.21
X52.652Y-96.71
X53.733Y-122.861
X53.733Y-125.401
X56.273Y-122.861
X56.273Y-125.401
X58.813Y-122.861
X58.813Y-125.401
X60.225Y-10.597
X60.225Y-13.137
X60.225Y-15.677
X60.225Y-18.217
X60.225Y-20.757
X60.225Y-23.297
X60.225Y-25.837
X60.225Y-28.377
X61.353Y-122.861
X61.353Y-125.401
X62.75Y-89.46
X62.75Y-92.0
X62.75Y-94.54
X62.75Y-97.08
X62.75Y-99.62
X62.75Y-102.16
X62.75Y-104.7
X62.75Y-107.24
X62.75Y-109.78
X62.75Y-112.32
X62.75Y-114.86
X63.258Y-36.374
X63.258Y-78.284
X65.798Y-78.284
X68.338Y-78.284
X73.418Y-52.884
X73.418Y-78.284
X75.958Y-52.884
X75.958Y-78.284
X78.498Y-36.374
X78.498Y-52.884
X78.498Y-78.284
X99.072Y-78.284
X99.58Y-43.74
X101.612Y-78.284
X102.12Y-43.74
X103.39Y-92.0
X103.39Y-94.54
X103.39Y-97.08
X103.39Y-99.62
X104.152Y-78.284
X104.66Y-43.74
X107.2Y-43.74
X109.232Y-52.884
X109.232Y-78.284
X109.74Y-43.74
X111.772Y-52.884
X111.772Y-78.284
X112.28Y-43.74
X112.28Y-123.75
X114.312Y-52.884
X114.312Y-78.284
X114.82Y-15.8
X114.82Y-43.74
X114.82Y-90.73
X114.82Y-123.75
X117.36Y-15.8
X117.36Y-43.74
X117.36Y-90.73
X117.36Y-123.75
X119.9Y-15.8
X119.9Y-43.74
X119.9Y-90.73
X119.9Y-123.75
X122.44Y-123.75
T6
X8.728Y-12.752
X13.728Y-12.752
X28.46Y-134.164
X33.46Y-134.164
X40.652Y-134.164
X45.652Y-134.164
X52.844Y-134.16
X57.844Y-134.16
X64.274Y-46.09
X65.076Y-134.156
X66.814Y-46.09
X69.354Y-46.09
X70.076Y-134.156
X77.268Y-134.16
X82.268Y-134.16
X89.5Y-134.164
X94.5Y-134.164
X99.66Y-5.644
X101.652Y-134.16
X104.66Y-5.644
X106.652Y-134.16
X113.804Y-134.164
X114.9Y-5.644
X118.804Y-134.164
X119.9Y-5.644
M30
